<?xml version="1.0" encoding="utf-8" standalone="no"?>
<!DOCTYPE svg PUBLIC "-//W3C//DTD SVG 1.1//EN"
  "http://www.w3.org/Graphics/SVG/1.1/DTD/svg11.dtd">
<!-- Created with matplotlib (https://matplotlib.org/) -->
<svg height="345.6pt" version="1.1" viewBox="0 0 460.8 345.6" width="460.8pt" xmlns="http://www.w3.org/2000/svg" xmlns:xlink="http://www.w3.org/1999/xlink">
 <defs>
  <style type="text/css">
*{stroke-linecap:butt;stroke-linejoin:round;}
  </style>
 </defs>
 <g id="figure_1">
  <g id="patch_1">
   <path d="M 0 345.6 
L 460.8 345.6 
L 460.8 0 
L 0 0 
z
" style="fill:#ffffff;"/>
  </g>
  <g id="patch_2">
   <path d="M 57.6 307.584 
L 414.72 307.584 
L 414.72 41.472 
L 57.6 41.472 
z
" style="fill:#ffffff;"/>
  </g>
  <g id="pane3d_1">
   <g id="patch_3">
    <path d="M 104.941774 248.782626 
L 207.151387 183.537994 
L 205.449705 58.866209 
L 97.541237 117.48717 
" style="fill:#f2f2f2;opacity:0.5;stroke:#f2f2f2;stroke-linejoin:miter;"/>
   </g>
  </g>
  <g id="pane3d_2">
   <g id="patch_4">
    <path d="M 207.151387 183.537994 
L 372.72135 220.013954 
L 379.648599 91.582742 
L 205.449705 58.866209 
" style="fill:#e6e6e6;opacity:0.5;stroke:#e6e6e6;stroke-linejoin:miter;"/>
   </g>
  </g>
  <g id="pane3d_3">
   <g id="patch_5">
    <path d="M 104.941774 248.782626 
L 279.143747 291.264825 
L 372.72135 220.013954 
L 207.151387 183.537994 
" style="fill:#ececec;opacity:0.5;stroke:#ececec;stroke-linejoin:miter;"/>
   </g>
  </g>
  <g id="axis3d_1">
   <g id="line2d_1">
    <path d="M 104.941774 248.782626 
L 279.143747 291.264825 
" style="fill:none;stroke:#000000;stroke-linecap:square;stroke-width:0.8;"/>
   </g>
   <g id="Line3DCollection_1">
    <path d="M 115.696833 251.405436 
L 217.405727 185.79708 
L 216.216441 60.888324 
" style="fill:none;stroke:#b0b0b0;stroke-width:0.8;"/>
    <path d="M 142.809655 258.017371 
L 243.237405 191.487939 
L 243.351762 65.984646 
" style="fill:none;stroke:#b0b0b0;stroke-width:0.8;"/>
    <path d="M 170.318935 264.725991 
L 269.419234 197.255938 
L 270.873721 71.153583 
" style="fill:none;stroke:#b0b0b0;stroke-width:0.8;"/>
    <path d="M 198.233433 271.533429 
L 295.958384 203.102656 
L 298.790643 76.396699 
" style="fill:none;stroke:#b0b0b0;stroke-width:0.8;"/>
    <path d="M 226.562171 278.441888 
L 322.86222 209.029717 
L 327.11109 81.715601 
" style="fill:none;stroke:#b0b0b0;stroke-width:0.8;"/>
    <path d="M 255.314436 285.453631 
L 350.13831 215.038788 
L 355.843876 87.111944 
" style="fill:none;stroke:#b0b0b0;stroke-width:0.8;"/>
   </g>
   <g id="xtick_1">
    <g id="line2d_2">
     <path d="M 116.57311 250.840184 
L 113.941011 252.538046 
" style="fill:none;stroke:#000000;stroke-linecap:square;stroke-width:0.8;"/>
    </g>
    <g id="text_1">
     <!-- 0 -->
     <defs>
      <path d="M 31.78125 66.40625 
Q 24.171875 66.40625 20.328125 58.90625 
Q 16.5 51.421875 16.5 36.375 
Q 16.5 21.390625 20.328125 13.890625 
Q 24.171875 6.390625 31.78125 6.390625 
Q 39.453125 6.390625 43.28125 13.890625 
Q 47.125 21.390625 47.125 36.375 
Q 47.125 51.421875 43.28125 58.90625 
Q 39.453125 66.40625 31.78125 66.40625 
z
M 31.78125 74.21875 
Q 44.046875 74.21875 50.515625 64.515625 
Q 56.984375 54.828125 56.984375 36.375 
Q 56.984375 17.96875 50.515625 8.265625 
Q 44.046875 -1.421875 31.78125 -1.421875 
Q 19.53125 -1.421875 13.0625 8.265625 
Q 6.59375 17.96875 6.59375 36.375 
Q 6.59375 54.828125 13.0625 64.515625 
Q 19.53125 74.21875 31.78125 74.21875 
z
" id="DejaVuSans-48"/>
     </defs>
     <g transform="translate(105.195444 272.877901)scale(0.1 -0.1)">
      <use xlink:href="#DejaVuSans-48"/>
     </g>
    </g>
   </g>
   <g id="xtick_2">
    <g id="line2d_3">
     <path d="M 143.675342 257.443888 
L 141.075027 259.166494 
" style="fill:none;stroke:#000000;stroke-linecap:square;stroke-width:0.8;"/>
    </g>
    <g id="text_2">
     <!-- 200 -->
     <defs>
      <path d="M 19.1875 8.296875 
L 53.609375 8.296875 
L 53.609375 0 
L 7.328125 0 
L 7.328125 8.296875 
Q 12.9375 14.109375 22.625 23.890625 
Q 32.328125 33.6875 34.8125 36.53125 
Q 39.546875 41.84375 41.421875 45.53125 
Q 43.3125 49.21875 43.3125 52.78125 
Q 43.3125 58.59375 39.234375 62.25 
Q 35.15625 65.921875 28.609375 65.921875 
Q 23.96875 65.921875 18.8125 64.3125 
Q 13.671875 62.703125 7.8125 59.421875 
L 7.8125 69.390625 
Q 13.765625 71.78125 18.9375 73 
Q 24.125 74.21875 28.421875 74.21875 
Q 39.75 74.21875 46.484375 68.546875 
Q 53.21875 62.890625 53.21875 53.421875 
Q 53.21875 48.921875 51.53125 44.890625 
Q 49.859375 40.875 45.40625 35.40625 
Q 44.1875 33.984375 37.640625 27.21875 
Q 31.109375 20.453125 19.1875 8.296875 
z
" id="DejaVuSans-50"/>
     </defs>
     <g transform="translate(125.942689 279.602955)scale(0.1 -0.1)">
      <use xlink:href="#DejaVuSans-50"/>
      <use x="63.623047" xlink:href="#DejaVuSans-48"/>
      <use x="127.246094" xlink:href="#DejaVuSans-48"/>
     </g>
    </g>
   </g>
   <g id="xtick_3">
    <g id="line2d_4">
     <path d="M 171.173628 264.144093 
L 168.606312 265.891988 
" style="fill:none;stroke:#000000;stroke-linecap:square;stroke-width:0.8;"/>
    </g>
    <g id="text_3">
     <!-- 400 -->
     <defs>
      <path d="M 37.796875 64.3125 
L 12.890625 25.390625 
L 37.796875 25.390625 
z
M 35.203125 72.90625 
L 47.609375 72.90625 
L 47.609375 25.390625 
L 58.015625 25.390625 
L 58.015625 17.1875 
L 47.609375 17.1875 
L 47.609375 0 
L 37.796875 0 
L 37.796875 17.1875 
L 4.890625 17.1875 
L 4.890625 26.703125 
z
" id="DejaVuSans-52"/>
     </defs>
     <g transform="translate(153.449586 286.426529)scale(0.1 -0.1)">
      <use xlink:href="#DejaVuSans-52"/>
      <use x="63.623047" xlink:href="#DejaVuSans-48"/>
      <use x="127.246094" xlink:href="#DejaVuSans-48"/>
     </g>
    </g>
   </g>
   <g id="xtick_4">
    <g id="line2d_5">
     <path d="M 199.076714 270.942932 
L 196.543656 272.716677 
" style="fill:none;stroke:#000000;stroke-linecap:square;stroke-width:0.8;"/>
    </g>
    <g id="text_4">
     <!-- 600 -->
     <defs>
      <path d="M 33.015625 40.375 
Q 26.375 40.375 22.484375 35.828125 
Q 18.609375 31.296875 18.609375 23.390625 
Q 18.609375 15.53125 22.484375 10.953125 
Q 26.375 6.390625 33.015625 6.390625 
Q 39.65625 6.390625 43.53125 10.953125 
Q 47.40625 15.53125 47.40625 23.390625 
Q 47.40625 31.296875 43.53125 35.828125 
Q 39.65625 40.375 33.015625 40.375 
z
M 52.59375 71.296875 
L 52.59375 62.3125 
Q 48.875 64.0625 45.09375 64.984375 
Q 41.3125 65.921875 37.59375 65.921875 
Q 27.828125 65.921875 22.671875 59.328125 
Q 17.53125 52.734375 16.796875 39.40625 
Q 19.671875 43.65625 24.015625 45.921875 
Q 28.375 48.1875 33.59375 48.1875 
Q 44.578125 48.1875 50.953125 41.515625 
Q 57.328125 34.859375 57.328125 23.390625 
Q 57.328125 12.15625 50.6875 5.359375 
Q 44.046875 -1.421875 33.015625 -1.421875 
Q 20.359375 -1.421875 13.671875 8.265625 
Q 6.984375 17.96875 6.984375 36.375 
Q 6.984375 53.65625 15.1875 63.9375 
Q 23.390625 74.21875 37.203125 74.21875 
Q 40.921875 74.21875 44.703125 73.484375 
Q 48.484375 72.75 52.59375 71.296875 
z
" id="DejaVuSans-54"/>
     </defs>
     <g transform="translate(181.362428 293.350805)scale(0.1 -0.1)">
      <use xlink:href="#DejaVuSans-54"/>
      <use x="63.623047" xlink:href="#DejaVuSans-48"/>
      <use x="127.246094" xlink:href="#DejaVuSans-48"/>
     </g>
    </g>
   </g>
   <g id="xtick_5">
    <g id="line2d_6">
     <path d="M 227.393605 277.842597 
L 224.896108 279.64277 
" style="fill:none;stroke:#000000;stroke-linecap:square;stroke-width:0.8;"/>
    </g>
    <g id="text_5">
     <!-- 800 -->
     <defs>
      <path d="M 31.78125 34.625 
Q 24.75 34.625 20.71875 30.859375 
Q 16.703125 27.09375 16.703125 20.515625 
Q 16.703125 13.921875 20.71875 10.15625 
Q 24.75 6.390625 31.78125 6.390625 
Q 38.8125 6.390625 42.859375 10.171875 
Q 46.921875 13.96875 46.921875 20.515625 
Q 46.921875 27.09375 42.890625 30.859375 
Q 38.875 34.625 31.78125 34.625 
z
M 21.921875 38.8125 
Q 15.578125 40.375 12.03125 44.71875 
Q 8.5 49.078125 8.5 55.328125 
Q 8.5 64.0625 14.71875 69.140625 
Q 20.953125 74.21875 31.78125 74.21875 
Q 42.671875 74.21875 48.875 69.140625 
Q 55.078125 64.0625 55.078125 55.328125 
Q 55.078125 49.078125 51.53125 44.71875 
Q 48 40.375 41.703125 38.8125 
Q 48.828125 37.15625 52.796875 32.3125 
Q 56.78125 27.484375 56.78125 20.515625 
Q 56.78125 9.90625 50.3125 4.234375 
Q 43.84375 -1.421875 31.78125 -1.421875 
Q 19.734375 -1.421875 13.25 4.234375 
Q 6.78125 9.90625 6.78125 20.515625 
Q 6.78125 27.484375 10.78125 32.3125 
Q 14.796875 37.15625 21.921875 38.8125 
z
M 18.3125 54.390625 
Q 18.3125 48.734375 21.84375 45.5625 
Q 25.390625 42.390625 31.78125 42.390625 
Q 38.140625 42.390625 41.71875 45.5625 
Q 45.3125 48.734375 45.3125 54.390625 
Q 45.3125 60.0625 41.71875 63.234375 
Q 38.140625 66.40625 31.78125 66.40625 
Q 25.390625 66.40625 21.84375 63.234375 
Q 18.3125 60.0625 18.3125 54.390625 
z
" id="DejaVuSans-56"/>
     </defs>
     <g transform="translate(209.690267 300.378028)scale(0.1 -0.1)">
      <use xlink:href="#DejaVuSans-56"/>
      <use x="63.623047" xlink:href="#DejaVuSans-48"/>
      <use x="127.246094" xlink:href="#DejaVuSans-48"/>
     </g>
    </g>
   </g>
   <g id="xtick_6">
    <g id="line2d_7">
     <path d="M 256.133575 284.84535 
L 253.672989 286.672546 
" style="fill:none;stroke:#000000;stroke-linecap:square;stroke-width:0.8;"/>
    </g>
    <g id="text_6">
     <!-- 1000 -->
     <defs>
      <path d="M 12.40625 8.296875 
L 28.515625 8.296875 
L 28.515625 63.921875 
L 10.984375 60.40625 
L 10.984375 69.390625 
L 28.421875 72.90625 
L 38.28125 72.90625 
L 38.28125 8.296875 
L 54.390625 8.296875 
L 54.390625 0 
L 12.40625 0 
z
" id="DejaVuSans-49"/>
     </defs>
     <g transform="translate(235.261177 307.510512)scale(0.1 -0.1)">
      <use xlink:href="#DejaVuSans-49"/>
      <use x="63.623047" xlink:href="#DejaVuSans-48"/>
      <use x="127.246094" xlink:href="#DejaVuSans-48"/>
      <use x="190.869141" xlink:href="#DejaVuSans-48"/>
     </g>
    </g>
   </g>
  </g>
  <g id="axis3d_2">
   <g id="line2d_8">
    <path d="M 372.72135 220.013954 
L 279.143747 291.264825 
" style="fill:none;stroke:#000000;stroke-linecap:square;stroke-width:0.8;"/>
   </g>
   <g id="Line3DCollection_2">
    <path d="M 105.074358 113.394824 
L 112.051217 244.244375 
L 285.67311 286.293307 
" style="fill:none;stroke:#b0b0b0;stroke-width:0.8;"/>
    <path d="M 119.354769 105.637032 
L 125.53908 235.634513 
L 298.052078 276.867844 
" style="fill:none;stroke:#b0b0b0;stroke-width:0.8;"/>
    <path d="M 133.351374 98.033417 
L 138.772388 227.187143 
L 310.186765 267.628378 
" style="fill:none;stroke:#b0b0b0;stroke-width:0.8;"/>
    <path d="M 147.072551 90.579428 
L 151.758282 218.897709 
L 322.084331 258.569459 
" style="fill:none;stroke:#b0b0b0;stroke-width:0.8;"/>
    <path d="M 160.52635 83.270691 
L 164.503634 210.761822 
L 333.751659 249.685845 
" style="fill:none;stroke:#b0b0b0;stroke-width:0.8;"/>
    <path d="M 173.720511 76.103001 
L 177.015068 202.775256 
L 345.195368 240.972496 
" style="fill:none;stroke:#b0b0b0;stroke-width:0.8;"/>
    <path d="M 186.662478 69.072315 
L 189.298963 194.933936 
L 356.421827 232.424564 
" style="fill:none;stroke:#b0b0b0;stroke-width:0.8;"/>
    <path d="M 199.359414 62.174742 
L 201.361473 187.233936 
L 367.437163 224.037383 
" style="fill:none;stroke:#b0b0b0;stroke-width:0.8;"/>
   </g>
   <g id="xtick_7">
    <g id="line2d_9">
     <path d="M 284.220054 285.941396 
L 288.582469 286.997916 
" style="fill:none;stroke:#000000;stroke-linecap:square;stroke-width:0.8;"/>
    </g>
    <g id="text_7">
     <!-- 0 -->
     <g transform="translate(295.189866 306.048341)scale(0.1 -0.1)">
      <use xlink:href="#DejaVuSans-48"/>
     </g>
    </g>
   </g>
   <g id="xtick_8">
    <g id="line2d_10">
     <path d="M 296.608936 276.52291 
L 300.941553 277.558474 
" style="fill:none;stroke:#000000;stroke-linecap:square;stroke-width:0.8;"/>
    </g>
    <g id="text_8">
     <!-- 100 -->
     <g transform="translate(301.073614 296.506553)scale(0.1 -0.1)">
      <use xlink:href="#DejaVuSans-49"/>
      <use x="63.623047" xlink:href="#DejaVuSans-48"/>
      <use x="127.246094" xlink:href="#DejaVuSans-48"/>
     </g>
    </g>
   </g>
   <g id="xtick_9">
    <g id="line2d_11">
     <path d="M 308.753432 267.290217 
L 313.056571 268.305442 
" style="fill:none;stroke:#000000;stroke-linecap:square;stroke-width:0.8;"/>
    </g>
    <g id="text_9">
     <!-- 200 -->
     <g transform="translate(313.078321 287.152965)scale(0.1 -0.1)">
      <use xlink:href="#DejaVuSans-50"/>
      <use x="63.623047" xlink:href="#DejaVuSans-48"/>
      <use x="127.246094" xlink:href="#DejaVuSans-48"/>
     </g>
    </g>
   </g>
   <g id="xtick_10">
    <g id="line2d_12">
     <path d="M 320.6607 258.237872 
L 324.934681 259.233352 
" style="fill:none;stroke:#000000;stroke-linecap:square;stroke-width:0.8;"/>
    </g>
    <g id="text_10">
     <!-- 300 -->
     <defs>
      <path d="M 40.578125 39.3125 
Q 47.65625 37.796875 51.625 33 
Q 55.609375 28.21875 55.609375 21.1875 
Q 55.609375 10.40625 48.1875 4.484375 
Q 40.765625 -1.421875 27.09375 -1.421875 
Q 22.515625 -1.421875 17.65625 -0.515625 
Q 12.796875 0.390625 7.625 2.203125 
L 7.625 11.71875 
Q 11.71875 9.328125 16.59375 8.109375 
Q 21.484375 6.890625 26.8125 6.890625 
Q 36.078125 6.890625 40.9375 10.546875 
Q 45.796875 14.203125 45.796875 21.1875 
Q 45.796875 27.640625 41.28125 31.265625 
Q 36.765625 34.90625 28.71875 34.90625 
L 20.21875 34.90625 
L 20.21875 43.015625 
L 29.109375 43.015625 
Q 36.375 43.015625 40.234375 45.921875 
Q 44.09375 48.828125 44.09375 54.296875 
Q 44.09375 59.90625 40.109375 62.90625 
Q 36.140625 65.921875 28.71875 65.921875 
Q 24.65625 65.921875 20.015625 65.03125 
Q 15.375 64.15625 9.8125 62.3125 
L 9.8125 71.09375 
Q 15.4375 72.65625 20.34375 73.4375 
Q 25.25 74.21875 29.59375 74.21875 
Q 40.828125 74.21875 47.359375 69.109375 
Q 53.90625 64.015625 53.90625 55.328125 
Q 53.90625 49.265625 50.4375 45.09375 
Q 46.96875 40.921875 40.578125 39.3125 
z
" id="DejaVuSans-51"/>
     </defs>
     <g transform="translate(324.848563 277.982063)scale(0.1 -0.1)">
      <use xlink:href="#DejaVuSans-51"/>
      <use x="63.623047" xlink:href="#DejaVuSans-48"/>
      <use x="127.246094" xlink:href="#DejaVuSans-48"/>
     </g>
    </g>
   </g>
   <g id="xtick_11">
    <g id="line2d_13">
     <path d="M 332.337625 249.360642 
L 336.582764 250.336949 
" style="fill:none;stroke:#000000;stroke-linecap:square;stroke-width:0.8;"/>
    </g>
    <g id="text_11">
     <!-- 400 -->
     <g transform="translate(336.391142 268.988546)scale(0.1 -0.1)">
      <use xlink:href="#DejaVuSans-52"/>
      <use x="63.623047" xlink:href="#DejaVuSans-48"/>
      <use x="127.246094" xlink:href="#DejaVuSans-48"/>
     </g>
    </g>
   </g>
   <g id="xtick_12">
    <g id="line2d_14">
     <path d="M 343.790827 240.653496 
L 348.00744 241.611176 
" style="fill:none;stroke:#000000;stroke-linecap:square;stroke-width:0.8;"/>
    </g>
    <g id="text_12">
     <!-- 500 -->
     <defs>
      <path d="M 10.796875 72.90625 
L 49.515625 72.90625 
L 49.515625 64.59375 
L 19.828125 64.59375 
L 19.828125 46.734375 
Q 21.96875 47.46875 24.109375 47.828125 
Q 26.265625 48.1875 28.421875 48.1875 
Q 40.625 48.1875 47.75 41.5 
Q 54.890625 34.8125 54.890625 23.390625 
Q 54.890625 11.625 47.5625 5.09375 
Q 40.234375 -1.421875 26.90625 -1.421875 
Q 22.3125 -1.421875 17.546875 -0.640625 
Q 12.796875 0.140625 7.71875 1.703125 
L 7.71875 11.625 
Q 12.109375 9.234375 16.796875 8.0625 
Q 21.484375 6.890625 26.703125 6.890625 
Q 35.15625 6.890625 40.078125 11.328125 
Q 45.015625 15.765625 45.015625 23.390625 
Q 45.015625 31 40.078125 35.4375 
Q 35.15625 39.890625 26.703125 39.890625 
Q 22.75 39.890625 18.8125 39.015625 
Q 14.890625 38.140625 10.796875 36.28125 
z
" id="DejaVuSans-53"/>
     </defs>
     <g transform="translate(347.712601 260.167317)scale(0.1 -0.1)">
      <use xlink:href="#DejaVuSans-53"/>
      <use x="63.623047" xlink:href="#DejaVuSans-48"/>
      <use x="127.246094" xlink:href="#DejaVuSans-48"/>
     </g>
    </g>
   </g>
   <g id="xtick_13">
    <g id="line2d_15">
     <path d="M 355.026674 232.11159 
L 359.215074 233.051173 
" style="fill:none;stroke:#000000;stroke-linecap:square;stroke-width:0.8;"/>
    </g>
    <g id="text_13">
     <!-- 600 -->
     <g transform="translate(358.819233 251.513472)scale(0.1 -0.1)">
      <use xlink:href="#DejaVuSans-54"/>
      <use x="63.623047" xlink:href="#DejaVuSans-48"/>
      <use x="127.246094" xlink:href="#DejaVuSans-48"/>
     </g>
    </g>
   </g>
   <g id="xtick_14">
    <g id="line2d_16">
     <path d="M 366.051295 223.730266 
L 370.211792 224.652259 
" style="fill:none;stroke:#000000;stroke-linecap:square;stroke-width:0.8;"/>
    </g>
    <g id="text_14">
     <!-- 700 -->
     <defs>
      <path d="M 8.203125 72.90625 
L 55.078125 72.90625 
L 55.078125 68.703125 
L 28.609375 0 
L 18.3125 0 
L 43.21875 64.59375 
L 8.203125 64.59375 
z
" id="DejaVuSans-55"/>
     </defs>
     <g transform="translate(369.717096 243.022293)scale(0.1 -0.1)">
      <use xlink:href="#DejaVuSans-55"/>
      <use x="63.623047" xlink:href="#DejaVuSans-48"/>
      <use x="127.246094" xlink:href="#DejaVuSans-48"/>
     </g>
    </g>
   </g>
  </g>
  <g id="axis3d_3">
   <g id="line2d_17">
    <path d="M 372.72135 220.013954 
L 379.648599 91.582742 
" style="fill:none;stroke:#000000;stroke-linecap:square;stroke-width:0.8;"/>
   </g>
   <g id="Line3DCollection_3">
    <path d="M 373.141488 212.224593 
L 207.047968 175.961156 
L 104.493657 240.832416 
" style="fill:none;stroke:#b0b0b0;stroke-width:0.8;"/>
    <path d="M 373.916711 197.851947 
L 206.857216 161.985907 
L 103.66656 226.15862 
" style="fill:none;stroke:#b0b0b0;stroke-width:0.8;"/>
    <path d="M 374.701083 183.309686 
L 206.664308 147.852672 
L 102.829379 211.305903 
" style="fill:none;stroke:#b0b0b0;stroke-width:0.8;"/>
    <path d="M 375.494767 168.59479 
L 206.469206 133.558755 
L 101.981928 196.270974 
" style="fill:none;stroke:#b0b0b0;stroke-width:0.8;"/>
    <path d="M 376.297929 153.704167 
L 206.271873 119.101401 
L 101.124015 181.050457 
" style="fill:none;stroke:#b0b0b0;stroke-width:0.8;"/>
    <path d="M 377.11074 138.634649 
L 206.072271 104.477792 
L 100.255447 165.640897 
" style="fill:none;stroke:#b0b0b0;stroke-width:0.8;"/>
    <path d="M 377.933375 123.382994 
L 205.870361 89.685041 
L 99.376024 150.038748 
" style="fill:none;stroke:#b0b0b0;stroke-width:0.8;"/>
    <path d="M 378.766013 107.945879 
L 205.666101 74.720198 
L 98.48554 134.240377 
" style="fill:none;stroke:#b0b0b0;stroke-width:0.8;"/>
   </g>
   <g id="xtick_15">
    <g id="line2d_18">
     <path d="M 371.75555 211.921999 
L 375.916253 212.830411 
" style="fill:none;stroke:#000000;stroke-linecap:square;stroke-width:0.8;"/>
    </g>
    <g id="text_15">
     <!-- 0 -->
     <g transform="translate(388.349457 217.864796)scale(0.1 -0.1)">
      <use xlink:href="#DejaVuSans-48"/>
     </g>
    </g>
   </g>
   <g id="xtick_16">
    <g id="line2d_19">
     <path d="M 372.522376 197.552596 
L 376.708307 198.451275 
" style="fill:none;stroke:#000000;stroke-linecap:square;stroke-width:0.8;"/>
    </g>
    <g id="text_16">
     <!-- 2 -->
     <g transform="translate(389.230556 203.513162)scale(0.1 -0.1)">
      <use xlink:href="#DejaVuSans-50"/>
     </g>
    </g>
   </g>
   <g id="xtick_17">
    <g id="line2d_20">
     <path d="M 373.298248 183.013677 
L 377.509714 183.902328 
" style="fill:none;stroke:#000000;stroke-linecap:square;stroke-width:0.8;"/>
    </g>
    <g id="text_17">
     <!-- 4 -->
     <g transform="translate(390.12203 188.992546)scale(0.1 -0.1)">
      <use xlink:href="#DejaVuSans-52"/>
     </g>
    </g>
   </g>
   <g id="xtick_18">
    <g id="line2d_21">
     <path d="M 374.083327 168.302223 
L 378.320642 169.180544 
" style="fill:none;stroke:#000000;stroke-linecap:square;stroke-width:0.8;"/>
    </g>
    <g id="text_18">
     <!-- 6 -->
     <g transform="translate(391.024062 174.299947)scale(0.1 -0.1)">
      <use xlink:href="#DejaVuSans-54"/>
     </g>
    </g>
   </g>
   <g id="xtick_19">
    <g id="line2d_22">
     <path d="M 374.877779 153.415145 
L 379.14126 154.282826 
" style="fill:none;stroke:#000000;stroke-linecap:square;stroke-width:0.8;"/>
    </g>
    <g id="text_19">
     <!-- 8 -->
     <g transform="translate(391.936842 159.43229)scale(0.1 -0.1)">
      <use xlink:href="#DejaVuSans-56"/>
     </g>
    </g>
   </g>
   <g id="xtick_20">
    <g id="line2d_23">
     <path d="M 375.681771 138.34928 
L 379.971745 139.206 
" style="fill:none;stroke:#000000;stroke-linecap:square;stroke-width:0.8;"/>
    </g>
    <g id="text_20">
     <!-- 10 -->
     <g transform="translate(389.679313 144.386428)scale(0.1 -0.1)">
      <use xlink:href="#DejaVuSans-49"/>
      <use x="63.623047" xlink:href="#DejaVuSans-48"/>
     </g>
    </g>
   </g>
   <g id="xtick_21">
    <g id="line2d_24">
     <path d="M 376.495478 123.101387 
L 380.812275 123.946817 
" style="fill:none;stroke:#000000;stroke-linecap:square;stroke-width:0.8;"/>
    </g>
    <g id="text_21">
     <!-- 12 -->
     <g transform="translate(390.614172 129.159137)scale(0.1 -0.1)">
      <use xlink:href="#DejaVuSans-49"/>
      <use x="63.623047" xlink:href="#DejaVuSans-50"/>
     </g>
    </g>
   </g>
   <g id="xtick_22">
    <g id="line2d_25">
     <path d="M 377.319076 107.668147 
L 381.663033 108.501948 
" style="fill:none;stroke:#000000;stroke-linecap:square;stroke-width:0.8;"/>
    </g>
    <g id="text_22">
     <!-- 14 -->
     <g transform="translate(391.560372 113.747117)scale(0.1 -0.1)">
      <use xlink:href="#DejaVuSans-49"/>
      <use x="63.623047" xlink:href="#DejaVuSans-52"/>
     </g>
    </g>
   </g>
  </g>
  <g id="axes_1">
   <g id="line2d_26">
    <path clip-path="url(#p738e8a0b93)" d="M 122.518862 238.933777 
L 122.156502 230.496888 
L 121.50566 221.086117 
L 120.766209 209.836022 
L 120.466584 201.458185 
L 119.940623 184.971596 
L 119.364464 176.104715 
L 118.404364 161.648281 
L 118.09967 152.92915 
L 117.573754 136.510432 
L 116.992595 127.411853 
L 116.771794 124.427541 
L 116.771794 124.427541 
" style="fill:none;stroke:#808080;stroke-linecap:square;stroke-width:1.5;"/>
   </g>
   <g id="Path3DCollection_1">
    <defs>
     <path d="M 0 2.236068 
C 0.593012 2.236068 1.161816 2.000462 1.581139 1.581139 
C 2.000462 1.161816 2.236068 0.593012 2.236068 0 
C 2.236068 -0.593012 2.000462 -1.161816 1.581139 -1.581139 
C 1.161816 -2.000462 0.593012 -2.236068 0 -2.236068 
C -0.593012 -2.236068 -1.161816 -2.000462 -1.581139 -1.581139 
C -2.000462 -1.161816 -2.236068 -0.593012 -2.236068 0 
C -2.236068 0.593012 -2.000462 1.161816 -1.581139 1.581139 
C -1.161816 2.000462 -0.593012 2.236068 0 2.236068 
z
" id="m170ffe22f3" style="stroke:#e377c2;"/>
    </defs>
    <g clip-path="url(#p738e8a0b93)">
     <use style="fill:#e377c2;stroke:#e377c2;" x="340.829455" xlink:href="#m170ffe22f3" y="174.021495"/>
    </g>
   </g>
   <g id="Path3DCollection_2">
    <defs>
     <path d="M 0 2.236068 
C 0.593012 2.236068 1.161816 2.000462 1.581139 1.581139 
C 2.000462 1.161816 2.236068 0.593012 2.236068 0 
C 2.236068 -0.593012 2.000462 -1.161816 1.581139 -1.581139 
C 1.161816 -2.000462 0.593012 -2.236068 0 -2.236068 
C -0.593012 -2.236068 -1.161816 -2.000462 -1.581139 -1.581139 
C -2.000462 -1.161816 -2.236068 -0.593012 -2.236068 0 
C -2.236068 0.593012 -2.000462 1.161816 -1.581139 1.581139 
C -1.161816 2.000462 -0.593012 2.236068 0 2.236068 
z
" id="m62242775a9" style="stroke:#2ca02c;"/>
    </defs>
    <g clip-path="url(#p738e8a0b93)">
     <use style="fill:#2ca02c;stroke:#2ca02c;" x="222.833408" xlink:href="#m62242775a9" y="184.40304"/>
    </g>
   </g>
   <g id="Path3DCollection_3">
    <defs>
     <path d="M 0 2.236068 
C 0.593012 2.236068 1.161816 2.000462 1.581139 1.581139 
C 2.000462 1.161816 2.236068 0.593012 2.236068 0 
C 2.236068 -0.593012 2.000462 -1.161816 1.581139 -1.581139 
C 1.161816 -2.000462 0.593012 -2.236068 0 -2.236068 
C -0.593012 -2.236068 -1.161816 -2.000462 -1.581139 -1.581139 
C -2.000462 -1.161816 -2.236068 -0.593012 -2.236068 0 
C -2.236068 0.593012 -2.000462 1.161816 -1.581139 1.581139 
C -1.161816 2.000462 -0.593012 2.236068 0 2.236068 
z
" id="m5336abc7b9" style="stroke:#7f7f7f;"/>
    </defs>
    <g clip-path="url(#p738e8a0b93)">
     <use style="fill:#7f7f7f;stroke:#7f7f7f;" x="222.199676" xlink:href="#m5336abc7b9" y="188.288764"/>
    </g>
   </g>
   <g id="Path3DCollection_4">
    <defs>
     <path d="M 0 2.236068 
C 0.593012 2.236068 1.161816 2.000462 1.581139 1.581139 
C 2.000462 1.161816 2.236068 0.593012 2.236068 0 
C 2.236068 -0.593012 2.000462 -1.161816 1.581139 -1.581139 
C 1.161816 -2.000462 0.593012 -2.236068 0 -2.236068 
C -0.593012 -2.236068 -1.161816 -2.000462 -1.581139 -1.581139 
C -2.000462 -1.161816 -2.236068 -0.593012 -2.236068 0 
C -2.236068 0.593012 -2.000462 1.161816 -1.581139 1.581139 
C -1.161816 2.000462 -0.593012 2.236068 0 2.236068 
z
" id="me3a62f6573" style="stroke:#8c564b;"/>
    </defs>
    <g clip-path="url(#p738e8a0b93)">
     <use style="fill:#8c564b;stroke:#8c564b;" x="222.363173" xlink:href="#me3a62f6573" y="189.80413"/>
    </g>
   </g>
   <g id="Path3DCollection_5">
    <defs>
     <path d="M 0 2.236068 
C 0.593012 2.236068 1.161816 2.000462 1.581139 1.581139 
C 2.000462 1.161816 2.236068 0.593012 2.236068 0 
C 2.236068 -0.593012 2.000462 -1.161816 1.581139 -1.581139 
C 1.161816 -2.000462 0.593012 -2.236068 0 -2.236068 
C -0.593012 -2.236068 -1.161816 -2.000462 -1.581139 -1.581139 
C -2.000462 -1.161816 -2.236068 -0.593012 -2.236068 0 
C -2.236068 0.593012 -2.000462 1.161816 -1.581139 1.581139 
C -1.161816 2.000462 -0.593012 2.236068 0 2.236068 
z
" id="mdf73993191" style="stroke:#9467bd;"/>
    </defs>
    <g clip-path="url(#p738e8a0b93)">
     <use style="fill:#9467bd;stroke:#9467bd;" x="221.562328" xlink:href="#mdf73993191" y="190.669241"/>
    </g>
   </g>
   <g id="Path3DCollection_6">
    <defs>
     <path d="M 0 2.236068 
C 0.593012 2.236068 1.161816 2.000462 1.581139 1.581139 
C 2.000462 1.161816 2.236068 0.593012 2.236068 0 
C 2.236068 -0.593012 2.000462 -1.161816 1.581139 -1.581139 
C 1.161816 -2.000462 0.593012 -2.236068 0 -2.236068 
C -0.593012 -2.236068 -1.161816 -2.000462 -1.581139 -1.581139 
C -2.000462 -1.161816 -2.236068 -0.593012 -2.236068 0 
C -2.236068 0.593012 -2.000462 1.161816 -1.581139 1.581139 
C -1.161816 2.000462 -0.593012 2.236068 0 2.236068 
z
" id="m8e3f7d539a" style="stroke:#d62728;"/>
    </defs>
    <g clip-path="url(#p738e8a0b93)">
     <use style="fill:#d62728;stroke:#d62728;" x="221.473475" xlink:href="#m8e3f7d539a" y="191.453576"/>
    </g>
   </g>
   <g id="Path3DCollection_7">
    <defs>
     <path d="M 0 2.236068 
C 0.593012 2.236068 1.161816 2.000462 1.581139 1.581139 
C 2.000462 1.161816 2.236068 0.593012 2.236068 0 
C 2.236068 -0.593012 2.000462 -1.161816 1.581139 -1.581139 
C 1.161816 -2.000462 0.593012 -2.236068 0 -2.236068 
C -0.593012 -2.236068 -1.161816 -2.000462 -1.581139 -1.581139 
C -2.000462 -1.161816 -2.236068 -0.593012 -2.236068 0 
C -2.236068 0.593012 -2.000462 1.161816 -1.581139 1.581139 
C -1.161816 2.000462 -0.593012 2.236068 0 2.236068 
z
" id="m5f1962b159" style="stroke:#ff7f0e;"/>
    </defs>
    <g clip-path="url(#p738e8a0b93)">
     <use style="fill:#ff7f0e;stroke:#ff7f0e;" x="220.831847" xlink:href="#m5f1962b159" y="193.077472"/>
    </g>
   </g>
   <g id="Path3DCollection_8">
    <g clip-path="url(#p738e8a0b93)">
     <use style="fill:#d62728;stroke:#d62728;" x="164.256055" xlink:href="#m8e3f7d539a" y="194.122133"/>
    </g>
   </g>
   <g id="Path3DCollection_9">
    <g clip-path="url(#p738e8a0b93)">
     <use style="fill:#ff7f0e;stroke:#ff7f0e;" x="164.200213" xlink:href="#m5f1962b159" y="194.77579"/>
    </g>
   </g>
   <g id="Path3DCollection_10">
    <defs>
     <path d="M 0 2.236068 
C 0.593012 2.236068 1.161816 2.000462 1.581139 1.581139 
C 2.000462 1.161816 2.236068 0.593012 2.236068 0 
C 2.236068 -0.593012 2.000462 -1.161816 1.581139 -1.581139 
C 1.161816 -2.000462 0.593012 -2.236068 0 -2.236068 
C -0.593012 -2.236068 -1.161816 -2.000462 -1.581139 -1.581139 
C -2.000462 -1.161816 -2.236068 -0.593012 -2.236068 0 
C -2.236068 0.593012 -2.000462 1.161816 -1.581139 1.581139 
C -1.161816 2.000462 -0.593012 2.236068 0 2.236068 
z
" id="mb23b3a30d7" style="stroke:#1f77b4;"/>
    </defs>
    <g clip-path="url(#p738e8a0b93)">
     <use style="fill:#1f77b4;stroke:#1f77b4;" x="163.962022" xlink:href="#mb23b3a30d7" y="195.136119"/>
    </g>
   </g>
   <g id="Path3DCollection_11">
    <g clip-path="url(#p738e8a0b93)">
     <use style="fill:#9467bd;stroke:#9467bd;" x="333.76491" xlink:href="#mdf73993191" y="195.232154"/>
    </g>
   </g>
   <g id="Path3DCollection_12">
    <defs>
     <path d="M 0 2.236068 
C 0.593012 2.236068 1.161816 2.000462 1.581139 1.581139 
C 2.000462 1.161816 2.236068 0.593012 2.236068 0 
C 2.236068 -0.593012 2.000462 -1.161816 1.581139 -1.581139 
C 1.161816 -2.000462 0.593012 -2.236068 0 -2.236068 
C -0.593012 -2.236068 -1.161816 -2.000462 -1.581139 -1.581139 
C -2.000462 -1.161816 -2.236068 -0.593012 -2.236068 0 
C -2.236068 0.593012 -2.000462 1.161816 -1.581139 1.581139 
C -1.161816 2.000462 -0.593012 2.236068 0 2.236068 
z
" id="mdccdaa54dc" style="stroke:#17becf;"/>
    </defs>
    <g clip-path="url(#p738e8a0b93)">
     <use style="fill:#17becf;stroke:#17becf;" x="164.091535" xlink:href="#mdccdaa54dc" y="195.439107"/>
    </g>
   </g>
   <g id="Path3DCollection_13">
    <defs>
     <path d="M 0 2.236068 
C 0.593012 2.236068 1.161816 2.000462 1.581139 1.581139 
C 2.000462 1.161816 2.236068 0.593012 2.236068 0 
C 2.236068 -0.593012 2.000462 -1.161816 1.581139 -1.581139 
C 1.161816 -2.000462 0.593012 -2.236068 0 -2.236068 
C -0.593012 -2.236068 -1.161816 -2.000462 -1.581139 -1.581139 
C -2.000462 -1.161816 -2.236068 -0.593012 -2.236068 0 
C -2.236068 0.593012 -2.000462 1.161816 -1.581139 1.581139 
C -1.161816 2.000462 -0.593012 2.236068 0 2.236068 
z
" id="m25b09b5c4a" style="stroke:#bcbd22;"/>
    </defs>
    <g clip-path="url(#p738e8a0b93)">
     <use style="fill:#bcbd22;stroke:#bcbd22;" x="164.207384" xlink:href="#m25b09b5c4a" y="195.747219"/>
    </g>
   </g>
   <g id="Path3DCollection_14">
    <g clip-path="url(#p738e8a0b93)">
     <use style="fill:#2ca02c;stroke:#2ca02c;" x="163.483023" xlink:href="#m62242775a9" y="197.807593"/>
    </g>
   </g>
   <g id="Path3DCollection_15">
    <g clip-path="url(#p738e8a0b93)">
     <use style="fill:#1f77b4;stroke:#1f77b4;" x="162.764321" xlink:href="#mb23b3a30d7" y="198.537653"/>
    </g>
   </g>
   <g id="Path3DCollection_16">
    <g clip-path="url(#p738e8a0b93)">
     <use style="fill:#17becf;stroke:#17becf;" x="162.572825" xlink:href="#mdccdaa54dc" y="198.886701"/>
    </g>
   </g>
   <g id="Path3DCollection_17">
    <g clip-path="url(#p738e8a0b93)">
     <use style="fill:#bcbd22;stroke:#bcbd22;" x="162.552766" xlink:href="#m25b09b5c4a" y="199.225073"/>
    </g>
   </g>
   <g id="Path3DCollection_18">
    <g clip-path="url(#p738e8a0b93)">
     <use style="fill:#7f7f7f;stroke:#7f7f7f;" x="162.518073" xlink:href="#m5336abc7b9" y="199.567641"/>
    </g>
   </g>
   <g id="Path3DCollection_19">
    <g clip-path="url(#p738e8a0b93)">
     <use style="fill:#e377c2;stroke:#e377c2;" x="162.286112" xlink:href="#m170ffe22f3" y="199.923105"/>
    </g>
   </g>
   <g id="Path3DCollection_20">
    <g clip-path="url(#p738e8a0b93)">
     <use style="fill:#8c564b;stroke:#8c564b;" x="162.041278" xlink:href="#me3a62f6573" y="200.279475"/>
    </g>
   </g>
   <g id="Path3DCollection_21">
    <g clip-path="url(#p738e8a0b93)">
     <use style="fill:#d62728;stroke:#d62728;" x="160.975143" xlink:href="#m8e3f7d539a" y="201.00682"/>
    </g>
   </g>
   <g id="Path3DCollection_22">
    <g clip-path="url(#p738e8a0b93)">
     <use style="fill:#2ca02c;stroke:#2ca02c;" x="161.051943" xlink:href="#m62242775a9" y="201.355482"/>
    </g>
   </g>
   <g id="Path3DCollection_23">
    <g clip-path="url(#p738e8a0b93)">
     <use style="fill:#ff7f0e;stroke:#ff7f0e;" x="160.757459" xlink:href="#m5f1962b159" y="201.712827"/>
    </g>
   </g>
   <g id="Path3DCollection_24">
    <g clip-path="url(#p738e8a0b93)">
     <use style="fill:#1f77b4;stroke:#1f77b4;" x="160.62618" xlink:href="#mb23b3a30d7" y="202.071147"/>
    </g>
   </g>
   <g id="Path3DCollection_25">
    <g clip-path="url(#p738e8a0b93)">
     <use style="fill:#17becf;stroke:#17becf;" x="159.956754" xlink:href="#mdccdaa54dc" y="202.426308"/>
    </g>
   </g>
   <g id="Path3DCollection_26">
    <g clip-path="url(#p738e8a0b93)">
     <use style="fill:#bcbd22;stroke:#bcbd22;" x="159.799404" xlink:href="#m25b09b5c4a" y="202.786607"/>
    </g>
   </g>
   <g id="Path3DCollection_27">
    <g clip-path="url(#p738e8a0b93)">
     <use style="fill:#7f7f7f;stroke:#7f7f7f;" x="159.62698" xlink:href="#m5336abc7b9" y="203.150105"/>
    </g>
   </g>
   <g id="Path3DCollection_28">
    <g clip-path="url(#p738e8a0b93)">
     <use style="fill:#e377c2;stroke:#e377c2;" x="159.099361" xlink:href="#m170ffe22f3" y="203.502827"/>
    </g>
   </g>
   <g id="Path3DCollection_29">
    <g clip-path="url(#p738e8a0b93)">
     <use style="fill:#8c564b;stroke:#8c564b;" x="159.068145" xlink:href="#me3a62f6573" y="203.877752"/>
    </g>
   </g>
   <g id="Path3DCollection_30">
    <g clip-path="url(#p738e8a0b93)">
     <use style="fill:#9467bd;stroke:#9467bd;" x="158.684816" xlink:href="#mdf73993191" y="204.238517"/>
    </g>
   </g>
   <g id="Path3DCollection_31">
    <g clip-path="url(#p738e8a0b93)">
     <use style="fill:#d62728;stroke:#d62728;" x="158.124322" xlink:href="#m8e3f7d539a" y="204.587194"/>
    </g>
   </g>
   <g id="Path3DCollection_32">
    <g clip-path="url(#p738e8a0b93)">
     <use style="fill:#2ca02c;stroke:#2ca02c;" x="157.718885" xlink:href="#m62242775a9" y="204.945458"/>
    </g>
   </g>
   <g id="Path3DCollection_33">
    <g clip-path="url(#p738e8a0b93)">
     <use style="fill:#ff7f0e;stroke:#ff7f0e;" x="157.301754" xlink:href="#m5f1962b159" y="205.303098"/>
    </g>
   </g>
   <g id="Path3DCollection_34">
    <g clip-path="url(#p738e8a0b93)">
     <use style="fill:#1f77b4;stroke:#1f77b4;" x="156.873043" xlink:href="#mb23b3a30d7" y="205.660002"/>
    </g>
   </g>
   <g id="Path3DCollection_35">
    <g clip-path="url(#p738e8a0b93)">
     <use style="fill:#17becf;stroke:#17becf;" x="156.116848" xlink:href="#mdccdaa54dc" y="205.980062"/>
    </g>
   </g>
   <g id="Path3DCollection_36">
    <g clip-path="url(#p738e8a0b93)">
     <use style="fill:#bcbd22;stroke:#bcbd22;" x="156.137448" xlink:href="#m25b09b5c4a" y="206.39073"/>
    </g>
   </g>
   <g id="Path3DCollection_37">
    <g clip-path="url(#p738e8a0b93)">
     <use style="fill:#7f7f7f;stroke:#7f7f7f;" x="155.672741" xlink:href="#m5336abc7b9" y="206.746329"/>
    </g>
   </g>
   <g id="Path3DCollection_38">
    <g clip-path="url(#p738e8a0b93)">
     <use style="fill:#e377c2;stroke:#e377c2;" x="155.044808" xlink:href="#m170ffe22f3" y="207.078037"/>
    </g>
   </g>
   <g id="Path3DCollection_39">
    <g clip-path="url(#p738e8a0b93)">
     <use style="fill:#8c564b;stroke:#8c564b;" x="154.26004" xlink:href="#me3a62f6573" y="207.381063"/>
    </g>
   </g>
   <g id="Path3DCollection_40">
    <g clip-path="url(#p738e8a0b93)">
     <use style="fill:#9467bd;stroke:#9467bd;" x="153.768714" xlink:href="#mdf73993191" y="207.72811"/>
    </g>
   </g>
   <g id="Path3DCollection_41">
    <g clip-path="url(#p738e8a0b93)">
     <use style="fill:#d62728;stroke:#d62728;" x="153.558201" xlink:href="#m8e3f7d539a" y="208.1284"/>
    </g>
   </g>
   <g id="Path3DCollection_42">
    <g clip-path="url(#p738e8a0b93)">
     <use style="fill:#2ca02c;stroke:#2ca02c;" x="152.897942" xlink:href="#m62242775a9" y="208.446506"/>
    </g>
   </g>
   <g id="Path3DCollection_43">
    <g clip-path="url(#p738e8a0b93)">
     <use style="fill:#ff7f0e;stroke:#ff7f0e;" x="152.514248" xlink:href="#m5f1962b159" y="208.820715"/>
    </g>
   </g>
   <g id="Path3DCollection_44">
    <g clip-path="url(#p738e8a0b93)">
     <use style="fill:#1f77b4;stroke:#1f77b4;" x="151.837974" xlink:href="#mb23b3a30d7" y="209.132177"/>
    </g>
   </g>
  </g>
 </g>
 <defs>
  <clipPath id="p738e8a0b93">
   <rect height="266.112" width="357.12" x="57.6" y="41.472"/>
  </clipPath>
 </defs>
</svg>
