<?xml version="1.0" encoding="utf-8" standalone="no"?>
<!DOCTYPE svg PUBLIC "-//W3C//DTD SVG 1.1//EN"
  "http://www.w3.org/Graphics/SVG/1.1/DTD/svg11.dtd">
<!-- Created with matplotlib (https://matplotlib.org/) -->
<svg height="345.6pt" version="1.1" viewBox="0 0 460.8 345.6" width="460.8pt" xmlns="http://www.w3.org/2000/svg" xmlns:xlink="http://www.w3.org/1999/xlink">
 <defs>
  <style type="text/css">
*{stroke-linecap:butt;stroke-linejoin:round;}
  </style>
 </defs>
 <g id="figure_1">
  <g id="patch_1">
   <path d="M 0 345.6 
L 460.8 345.6 
L 460.8 0 
L 0 0 
z
" style="fill:#ffffff;"/>
  </g>
  <g id="patch_2">
   <path d="M 57.6 307.584 
L 414.72 307.584 
L 414.72 41.472 
L 57.6 41.472 
z
" style="fill:#ffffff;"/>
  </g>
  <g id="pane3d_1">
   <g id="patch_3">
    <path d="M 105.188611 210.875216 
L 251.468074 140.875513 
L 252.298014 42.819669 
L 93.952207 114.193612 
" style="fill:#f2f2f2;opacity:0.5;stroke:#f2f2f2;stroke-linejoin:miter;"/>
   </g>
  </g>
  <g id="pane3d_2">
   <g id="patch_4">
    <path d="M 251.468074 140.875513 
L 377.778608 223.718282 
L 389.187249 127.340074 
L 252.298014 42.819669 
" style="fill:#e6e6e6;opacity:0.5;stroke:#e6e6e6;stroke-linejoin:miter;"/>
   </g>
  </g>
  <g id="pane3d_3">
   <g id="patch_5">
    <path d="M 105.188611 210.875216 
L 229.506447 300.940315 
L 377.778608 223.718282 
L 251.468074 140.875513 
" style="fill:#ececec;opacity:0.5;stroke:#ececec;stroke-linejoin:miter;"/>
   </g>
  </g>
  <g id="axis3d_1">
   <g id="line2d_1">
    <path d="M 105.188611 210.875216 
L 229.506447 300.940315 
" style="fill:none;stroke:#000000;stroke-linecap:square;stroke-width:0.8;"/>
   </g>
   <g id="Line3DCollection_1">
    <path d="M 114.068437 217.308422 
L 260.507434 146.804121 
L 262.058961 48.846433 
" style="fill:none;stroke:#b0b0b0;stroke-width:0.8;"/>
    <path d="M 127.469011 227.016797 
L 274.143745 155.747713 
L 276.794135 57.944467 
" style="fill:none;stroke:#b0b0b0;stroke-width:0.8;"/>
    <path d="M 141.018357 236.832952 
L 287.925311 164.786571 
L 291.698888 67.147205 
" style="fill:none;stroke:#b0b0b0;stroke-width:0.8;"/>
    <path d="M 154.718965 246.758693 
L 301.854465 173.922228 
L 306.776162 76.456464 
" style="fill:none;stroke:#b0b0b0;stroke-width:0.8;"/>
    <path d="M 168.573382 256.795865 
L 315.93359 183.156246 
L 322.028972 85.874105 
" style="fill:none;stroke:#b0b0b0;stroke-width:0.8;"/>
    <path d="M 182.584214 266.946355 
L 330.165122 192.490222 
L 337.4604 95.402031 
" style="fill:none;stroke:#b0b0b0;stroke-width:0.8;"/>
    <path d="M 196.754124 277.212093 
L 344.551548 201.925787 
L 353.073603 105.042192 
" style="fill:none;stroke:#b0b0b0;stroke-width:0.8;"/>
    <path d="M 211.085837 287.595053 
L 359.095411 211.464611 
L 368.871811 114.796582 
" style="fill:none;stroke:#b0b0b0;stroke-width:0.8;"/>
    <path d="M 225.582139 298.097255 
L 373.79931 221.108397 
L 384.858332 124.667243 
" style="fill:none;stroke:#b0b0b0;stroke-width:0.8;"/>
   </g>
   <g id="xtick_1">
    <g id="line2d_2">
     <path d="M 115.288468 216.721028 
L 111.625927 218.484389 
" style="fill:none;stroke:#000000;stroke-linecap:square;stroke-width:0.8;"/>
    </g>
    <g id="text_1">
     <!-- 0 -->
     <defs>
      <path d="M 31.78125 66.40625 
Q 24.171875 66.40625 20.328125 58.90625 
Q 16.5 51.421875 16.5 36.375 
Q 16.5 21.390625 20.328125 13.890625 
Q 24.171875 6.390625 31.78125 6.390625 
Q 39.453125 6.390625 43.28125 13.890625 
Q 47.125 21.390625 47.125 36.375 
Q 47.125 51.421875 43.28125 58.90625 
Q 39.453125 66.40625 31.78125 66.40625 
z
M 31.78125 74.21875 
Q 44.046875 74.21875 50.515625 64.515625 
Q 56.984375 54.828125 56.984375 36.375 
Q 56.984375 17.96875 50.515625 8.265625 
Q 44.046875 -1.421875 31.78125 -1.421875 
Q 19.53125 -1.421875 13.0625 8.265625 
Q 6.59375 17.96875 6.59375 36.375 
Q 6.59375 54.828125 13.0625 64.515625 
Q 19.53125 74.21875 31.78125 74.21875 
z
" id="DejaVuSans-48"/>
     </defs>
     <g transform="translate(100.792452 236.397995)scale(0.1 -0.1)">
      <use xlink:href="#DejaVuSans-48"/>
     </g>
    </g>
   </g>
   <g id="xtick_2">
    <g id="line2d_3">
     <path d="M 128.691274 226.4229 
L 125.022019 228.205787 
" style="fill:none;stroke:#000000;stroke-linecap:square;stroke-width:0.8;"/>
    </g>
    <g id="text_2">
     <!-- 10 -->
     <defs>
      <path d="M 12.40625 8.296875 
L 28.515625 8.296875 
L 28.515625 63.921875 
L 10.984375 60.40625 
L 10.984375 69.390625 
L 28.421875 72.90625 
L 38.28125 72.90625 
L 38.28125 8.296875 
L 54.390625 8.296875 
L 54.390625 0 
L 12.40625 0 
z
" id="DejaVuSans-49"/>
     </defs>
     <g transform="translate(110.922915 246.14554)scale(0.1 -0.1)">
      <use xlink:href="#DejaVuSans-49"/>
      <use x="63.623047" xlink:href="#DejaVuSans-48"/>
     </g>
    </g>
   </g>
   <g id="xtick_3">
    <g id="line2d_4">
     <path d="M 142.242827 236.232445 
L 138.566933 238.035184 
" style="fill:none;stroke:#000000;stroke-linecap:square;stroke-width:0.8;"/>
    </g>
    <g id="text_3">
     <!-- 20 -->
     <defs>
      <path d="M 19.1875 8.296875 
L 53.609375 8.296875 
L 53.609375 0 
L 7.328125 0 
L 7.328125 8.296875 
Q 12.9375 14.109375 22.625 23.890625 
Q 32.328125 33.6875 34.8125 36.53125 
Q 39.546875 41.84375 41.421875 45.53125 
Q 43.3125 49.21875 43.3125 52.78125 
Q 43.3125 58.59375 39.234375 62.25 
Q 35.15625 65.921875 28.609375 65.921875 
Q 23.96875 65.921875 18.8125 64.3125 
Q 13.671875 62.703125 7.8125 59.421875 
L 7.8125 69.390625 
Q 13.765625 71.78125 18.9375 73 
Q 24.125 74.21875 28.421875 74.21875 
Q 39.75 74.21875 46.484375 68.546875 
Q 53.21875 62.890625 53.21875 53.421875 
Q 53.21875 48.921875 51.53125 44.890625 
Q 49.859375 40.875 45.40625 35.40625 
Q 44.1875 33.984375 37.640625 27.21875 
Q 31.109375 20.453125 19.1875 8.296875 
z
" id="DejaVuSans-50"/>
     </defs>
     <g transform="translate(124.382044 256.00103)scale(0.1 -0.1)">
      <use xlink:href="#DejaVuSans-50"/>
      <use x="63.623047" xlink:href="#DejaVuSans-48"/>
     </g>
    </g>
   </g>
   <g id="xtick_4">
    <g id="line2d_5">
     <path d="M 155.945615 246.151464 
L 152.263163 247.974388 
" style="fill:none;stroke:#000000;stroke-linecap:square;stroke-width:0.8;"/>
    </g>
    <g id="text_4">
     <!-- 30 -->
     <defs>
      <path d="M 40.578125 39.3125 
Q 47.65625 37.796875 51.625 33 
Q 55.609375 28.21875 55.609375 21.1875 
Q 55.609375 10.40625 48.1875 4.484375 
Q 40.765625 -1.421875 27.09375 -1.421875 
Q 22.515625 -1.421875 17.65625 -0.515625 
Q 12.796875 0.390625 7.625 2.203125 
L 7.625 11.71875 
Q 11.71875 9.328125 16.59375 8.109375 
Q 21.484375 6.890625 26.8125 6.890625 
Q 36.078125 6.890625 40.9375 10.546875 
Q 45.796875 14.203125 45.796875 21.1875 
Q 45.796875 27.640625 41.28125 31.265625 
Q 36.765625 34.90625 28.71875 34.90625 
L 20.21875 34.90625 
L 20.21875 43.015625 
L 29.109375 43.015625 
Q 36.375 43.015625 40.234375 45.921875 
Q 44.09375 48.828125 44.09375 54.296875 
Q 44.09375 59.90625 40.109375 62.90625 
Q 36.140625 65.921875 28.71875 65.921875 
Q 24.65625 65.921875 20.015625 65.03125 
Q 15.375 64.15625 9.8125 62.3125 
L 9.8125 71.09375 
Q 15.4375 72.65625 20.34375 73.4375 
Q 25.25 74.21875 29.59375 74.21875 
Q 40.828125 74.21875 47.359375 69.109375 
Q 53.90625 64.015625 53.90625 55.328125 
Q 53.90625 49.265625 50.4375 45.09375 
Q 46.96875 40.921875 40.578125 39.3125 
z
" id="DejaVuSans-51"/>
     </defs>
     <g transform="translate(137.99105 265.966269)scale(0.1 -0.1)">
      <use xlink:href="#DejaVuSans-51"/>
      <use x="63.623047" xlink:href="#DejaVuSans-48"/>
     </g>
    </g>
   </g>
   <g id="xtick_5">
    <g id="line2d_6">
     <path d="M 169.802184 256.181801 
L 166.113258 258.025251 
" style="fill:none;stroke:#000000;stroke-linecap:square;stroke-width:0.8;"/>
    </g>
    <g id="text_5">
     <!-- 40 -->
     <defs>
      <path d="M 37.796875 64.3125 
L 12.890625 25.390625 
L 37.796875 25.390625 
z
M 35.203125 72.90625 
L 47.609375 72.90625 
L 47.609375 25.390625 
L 58.015625 25.390625 
L 58.015625 17.1875 
L 47.609375 17.1875 
L 47.609375 0 
L 37.796875 0 
L 37.796875 17.1875 
L 4.890625 17.1875 
L 4.890625 26.703125 
z
" id="DejaVuSans-52"/>
     </defs>
     <g transform="translate(151.752452 276.043101)scale(0.1 -0.1)">
      <use xlink:href="#DejaVuSans-52"/>
      <use x="63.623047" xlink:href="#DejaVuSans-48"/>
     </g>
    </g>
   </g>
   <g id="xtick_6">
    <g id="line2d_7">
     <path d="M 183.815138 266.32534 
L 180.119826 268.189665 
" style="fill:none;stroke:#000000;stroke-linecap:square;stroke-width:0.8;"/>
    </g>
    <g id="text_6">
     <!-- 50 -->
     <defs>
      <path d="M 10.796875 72.90625 
L 49.515625 72.90625 
L 49.515625 64.59375 
L 19.828125 64.59375 
L 19.828125 46.734375 
Q 21.96875 47.46875 24.109375 47.828125 
Q 26.265625 48.1875 28.421875 48.1875 
Q 40.625 48.1875 47.75 41.5 
Q 54.890625 34.8125 54.890625 23.390625 
Q 54.890625 11.625 47.5625 5.09375 
Q 40.234375 -1.421875 26.90625 -1.421875 
Q 22.3125 -1.421875 17.546875 -0.640625 
Q 12.796875 0.140625 7.71875 1.703125 
L 7.71875 11.625 
Q 12.109375 9.234375 16.796875 8.0625 
Q 21.484375 6.890625 26.703125 6.890625 
Q 35.15625 6.890625 40.078125 11.328125 
Q 45.015625 15.765625 45.015625 23.390625 
Q 45.015625 31 40.078125 35.4375 
Q 35.15625 39.890625 26.703125 39.890625 
Q 22.75 39.890625 18.8125 39.015625 
Q 14.890625 38.140625 10.796875 36.28125 
z
" id="DejaVuSans-53"/>
     </defs>
     <g transform="translate(165.668824 286.233409)scale(0.1 -0.1)">
      <use xlink:href="#DejaVuSans-53"/>
      <use x="63.623047" xlink:href="#DejaVuSans-48"/>
     </g>
    </g>
   </g>
   <g id="xtick_7">
    <g id="line2d_8">
     <path d="M 197.98714 276.584009 
L 194.285534 278.469564 
" style="fill:none;stroke:#000000;stroke-linecap:square;stroke-width:0.8;"/>
    </g>
    <g id="text_7">
     <!-- 60 -->
     <defs>
      <path d="M 33.015625 40.375 
Q 26.375 40.375 22.484375 35.828125 
Q 18.609375 31.296875 18.609375 23.390625 
Q 18.609375 15.53125 22.484375 10.953125 
Q 26.375 6.390625 33.015625 6.390625 
Q 39.65625 6.390625 43.53125 10.953125 
Q 47.40625 15.53125 47.40625 23.390625 
Q 47.40625 31.296875 43.53125 35.828125 
Q 39.65625 40.375 33.015625 40.375 
z
M 52.59375 71.296875 
L 52.59375 62.3125 
Q 48.875 64.0625 45.09375 64.984375 
Q 41.3125 65.921875 37.59375 65.921875 
Q 27.828125 65.921875 22.671875 59.328125 
Q 17.53125 52.734375 16.796875 39.40625 
Q 19.671875 43.65625 24.015625 45.921875 
Q 28.375 48.1875 33.59375 48.1875 
Q 44.578125 48.1875 50.953125 41.515625 
Q 57.328125 34.859375 57.328125 23.390625 
Q 57.328125 12.15625 50.6875 5.359375 
Q 44.046875 -1.421875 33.015625 -1.421875 
Q 20.359375 -1.421875 13.671875 8.265625 
Q 6.984375 17.96875 6.984375 36.375 
Q 6.984375 53.65625 15.1875 63.9375 
Q 23.390625 74.21875 37.203125 74.21875 
Q 40.921875 74.21875 44.703125 73.484375 
Q 48.484375 72.75 52.59375 71.296875 
z
" id="DejaVuSans-54"/>
     </defs>
     <g transform="translate(179.742798 296.539122)scale(0.1 -0.1)">
      <use xlink:href="#DejaVuSans-54"/>
      <use x="63.623047" xlink:href="#DejaVuSans-48"/>
     </g>
    </g>
   </g>
   <g id="xtick_8">
    <g id="line2d_9">
     <path d="M 212.320912 286.959778 
L 208.613109 288.866929 
" style="fill:none;stroke:#000000;stroke-linecap:square;stroke-width:0.8;"/>
    </g>
    <g id="text_8">
     <!-- 70 -->
     <defs>
      <path d="M 8.203125 72.90625 
L 55.078125 72.90625 
L 55.078125 68.703125 
L 28.609375 0 
L 18.3125 0 
L 43.21875 64.59375 
L 8.203125 64.59375 
z
" id="DejaVuSans-55"/>
     </defs>
     <g transform="translate(193.977067 306.962211)scale(0.1 -0.1)">
      <use xlink:href="#DejaVuSans-55"/>
      <use x="63.623047" xlink:href="#DejaVuSans-48"/>
     </g>
    </g>
   </g>
   <g id="xtick_9">
    <g id="line2d_10">
     <path d="M 226.81924 297.454664 
L 223.105342 299.383784 
" style="fill:none;stroke:#000000;stroke-linecap:square;stroke-width:0.8;"/>
    </g>
    <g id="text_9">
     <!-- 80 -->
     <defs>
      <path d="M 31.78125 34.625 
Q 24.75 34.625 20.71875 30.859375 
Q 16.703125 27.09375 16.703125 20.515625 
Q 16.703125 13.921875 20.71875 10.15625 
Q 24.75 6.390625 31.78125 6.390625 
Q 38.8125 6.390625 42.859375 10.171875 
Q 46.921875 13.96875 46.921875 20.515625 
Q 46.921875 27.09375 42.890625 30.859375 
Q 38.875 34.625 31.78125 34.625 
z
M 21.921875 38.8125 
Q 15.578125 40.375 12.03125 44.71875 
Q 8.5 49.078125 8.5 55.328125 
Q 8.5 64.0625 14.71875 69.140625 
Q 20.953125 74.21875 31.78125 74.21875 
Q 42.671875 74.21875 48.875 69.140625 
Q 55.078125 64.0625 55.078125 55.328125 
Q 55.078125 49.078125 51.53125 44.71875 
Q 48 40.375 41.703125 38.8125 
Q 48.828125 37.15625 52.796875 32.3125 
Q 56.78125 27.484375 56.78125 20.515625 
Q 56.78125 9.90625 50.3125 4.234375 
Q 43.84375 -1.421875 31.78125 -1.421875 
Q 19.734375 -1.421875 13.25 4.234375 
Q 6.78125 9.90625 6.78125 20.515625 
Q 6.78125 27.484375 10.78125 32.3125 
Q 14.796875 37.15625 21.921875 38.8125 
z
M 18.3125 54.390625 
Q 18.3125 48.734375 21.84375 45.5625 
Q 25.390625 42.390625 31.78125 42.390625 
Q 38.140625 42.390625 41.71875 45.5625 
Q 45.3125 48.734375 45.3125 54.390625 
Q 45.3125 60.0625 41.71875 63.234375 
Q 38.140625 66.40625 31.78125 66.40625 
Q 25.390625 66.40625 21.84375 63.234375 
Q 18.3125 60.0625 18.3125 54.390625 
z
" id="DejaVuSans-56"/>
     </defs>
     <g transform="translate(208.374385 317.504693)scale(0.1 -0.1)">
      <use xlink:href="#DejaVuSans-56"/>
      <use x="63.623047" xlink:href="#DejaVuSans-48"/>
     </g>
    </g>
   </g>
  </g>
  <g id="axis3d_2">
   <g id="line2d_11">
    <path d="M 377.778608 223.718282 
L 229.506447 300.940315 
" style="fill:none;stroke:#000000;stroke-linecap:square;stroke-width:0.8;"/>
   </g>
   <g id="Line3DCollection_2">
    <path d="M 106.326637 108.615872 
L 116.58535 205.421488 
L 241.080307 294.912501 
" style="fill:none;stroke:#b0b0b0;stroke-width:0.8;"/>
    <path d="M 124.96169 100.216172 
L 133.759149 197.203241 
L 258.514019 285.832802 
" style="fill:none;stroke:#b0b0b0;stroke-width:0.8;"/>
    <path d="M 143.40797 91.901561 
L 150.772106 189.061962 
L 275.776173 276.842452 
" style="fill:none;stroke:#b0b0b0;stroke-width:0.8;"/>
    <path d="M 161.668332 83.670752 
L 167.626472 180.996574 
L 292.869289 267.940139 
" style="fill:none;stroke:#b0b0b0;stroke-width:0.8;"/>
    <path d="M 179.745571 75.522486 
L 184.324452 173.006022 
L 309.795838 259.124576 
" style="fill:none;stroke:#b0b0b0;stroke-width:0.8;"/>
    <path d="M 197.642429 67.455526 
L 200.868215 165.089268 
L 326.558243 250.394502 
" style="fill:none;stroke:#b0b0b0;stroke-width:0.8;"/>
    <path d="M 215.361592 59.468661 
L 217.259885 157.245296 
L 343.15888 241.748679 
" style="fill:none;stroke:#b0b0b0;stroke-width:0.8;"/>
    <path d="M 232.905693 51.560705 
L 233.501552 149.473106 
L 359.600079 233.185892 
" style="fill:none;stroke:#b0b0b0;stroke-width:0.8;"/>
   </g>
   <g id="xtick_10">
    <g id="line2d_12">
     <path d="M 240.033752 294.160203 
L 243.175994 296.418949 
" style="fill:none;stroke:#000000;stroke-linecap:square;stroke-width:0.8;"/>
    </g>
    <g id="text_10">
     <!-- 0 -->
     <g transform="translate(247.152801 315.304218)scale(0.1 -0.1)">
      <use xlink:href="#DejaVuSans-48"/>
     </g>
    </g>
   </g>
   <g id="xtick_11">
    <g id="line2d_13">
     <path d="M 257.465529 285.087924 
L 260.613566 287.324383 
" style="fill:none;stroke:#000000;stroke-linecap:square;stroke-width:0.8;"/>
    </g>
    <g id="text_11">
     <!-- 10 -->
     <g transform="translate(261.324205 306.179823)scale(0.1 -0.1)">
      <use xlink:href="#DejaVuSans-49"/>
      <use x="63.623047" xlink:href="#DejaVuSans-48"/>
     </g>
    </g>
   </g>
   <g id="xtick_12">
    <g id="line2d_14">
     <path d="M 274.725837 276.104884 
L 277.879404 278.319385 
" style="fill:none;stroke:#000000;stroke-linecap:square;stroke-width:0.8;"/>
    </g>
    <g id="text_12">
     <!-- 20 -->
     <g transform="translate(278.506443 297.145036)scale(0.1 -0.1)">
      <use xlink:href="#DejaVuSans-50"/>
      <use x="63.623047" xlink:href="#DejaVuSans-48"/>
     </g>
    </g>
   </g>
   <g id="xtick_13">
    <g id="line2d_15">
     <path d="M 291.817194 267.209775 
L 294.97603 269.402639 
" style="fill:none;stroke:#000000;stroke-linecap:square;stroke-width:0.8;"/>
    </g>
    <g id="text_13">
     <!-- 30 -->
     <g transform="translate(295.520764 288.198543)scale(0.1 -0.1)">
      <use xlink:href="#DejaVuSans-51"/>
      <use x="63.623047" xlink:href="#DejaVuSans-48"/>
     </g>
    </g>
   </g>
   <g id="xtick_14">
    <g id="line2d_16">
     <path d="M 308.742068 258.40131 
L 311.905921 260.572853 
" style="fill:none;stroke:#000000;stroke-linecap:square;stroke-width:0.8;"/>
    </g>
    <g id="text_14">
     <!-- 40 -->
     <g transform="translate(312.369618 279.339057)scale(0.1 -0.1)">
      <use xlink:href="#DejaVuSans-52"/>
      <use x="63.623047" xlink:href="#DejaVuSans-48"/>
     </g>
    </g>
   </g>
   <g id="xtick_15">
    <g id="line2d_17">
     <path d="M 325.502879 249.678232 
L 328.671505 251.828763 
" style="fill:none;stroke:#000000;stroke-linecap:square;stroke-width:0.8;"/>
    </g>
    <g id="text_15">
     <!-- 50 -->
     <g transform="translate(329.055407 270.565314)scale(0.1 -0.1)">
      <use xlink:href="#DejaVuSans-53"/>
      <use x="63.623047" xlink:href="#DejaVuSans-48"/>
     </g>
    </g>
   </g>
   <g id="xtick_16">
    <g id="line2d_18">
     <path d="M 342.102002 241.039302 
L 345.275161 243.169126 
" style="fill:none;stroke:#000000;stroke-linecap:square;stroke-width:0.8;"/>
    </g>
    <g id="text_16">
     <!-- 60 -->
     <g transform="translate(345.580486 261.876075)scale(0.1 -0.1)">
      <use xlink:href="#DejaVuSans-54"/>
      <use x="63.623047" xlink:href="#DejaVuSans-48"/>
     </g>
    </g>
   </g>
   <g id="xtick_17">
    <g id="line2d_19">
     <path d="M 358.541765 232.483311 
L 361.719223 234.592725 
" style="fill:none;stroke:#000000;stroke-linecap:square;stroke-width:0.8;"/>
    </g>
    <g id="text_17">
     <!-- 70 -->
     <g transform="translate(361.947166 253.270126)scale(0.1 -0.1)">
      <use xlink:href="#DejaVuSans-55"/>
      <use x="63.623047" xlink:href="#DejaVuSans-48"/>
     </g>
    </g>
   </g>
  </g>
  <g id="axis3d_3">
   <g id="line2d_20">
    <path d="M 377.778608 223.718282 
L 389.187249 127.340074 
" style="fill:none;stroke:#000000;stroke-linecap:square;stroke-width:0.8;"/>
   </g>
   <g id="Line3DCollection_3">
    <path d="M 378.452023 218.02939 
L 251.517243 135.066282 
L 104.524984 205.165156 
" style="fill:none;stroke:#b0b0b0;stroke-width:0.8;"/>
    <path d="M 379.700713 207.480675 
L 251.608355 124.301526 
L 103.294569 194.578275 
" style="fill:none;stroke:#b0b0b0;stroke-width:0.8;"/>
    <path d="M 380.972296 196.738563 
L 251.701058 113.34888 
L 102.041764 183.798741 
" style="fill:none;stroke:#b0b0b0;stroke-width:0.8;"/>
    <path d="M 382.267408 185.797685 
L 251.795393 102.203381 
L 100.765952 172.821247 
" style="fill:none;stroke:#b0b0b0;stroke-width:0.8;"/>
    <path d="M 383.586707 174.652473 
L 251.891404 90.859891 
L 99.466494 161.64029 
" style="fill:none;stroke:#b0b0b0;stroke-width:0.8;"/>
    <path d="M 384.930879 163.297149 
L 251.989135 79.313087 
L 98.142725 150.250161 
" style="fill:none;stroke:#b0b0b0;stroke-width:0.8;"/>
    <path d="M 386.300632 151.725714 
L 252.088634 67.557453 
L 96.793957 138.644934 
" style="fill:none;stroke:#b0b0b0;stroke-width:0.8;"/>
    <path d="M 387.696704 139.931941 
L 252.18995 55.587272 
L 95.419476 126.818457 
" style="fill:none;stroke:#b0b0b0;stroke-width:0.8;"/>
   </g>
   <g id="xtick_18">
    <g id="line2d_21">
     <path d="M 377.386713 217.333115 
L 380.585176 219.423594 
" style="fill:none;stroke:#000000;stroke-linecap:square;stroke-width:0.8;"/>
    </g>
    <g id="text_18">
     <!-- 0 -->
     <g transform="translate(394.833439 226.546535)scale(0.1 -0.1)">
      <use xlink:href="#DejaVuSans-48"/>
     </g>
    </g>
   </g>
   <g id="xtick_19">
    <g id="line2d_22">
     <path d="M 378.625231 206.782291 
L 381.854257 208.879119 
" style="fill:none;stroke:#000000;stroke-linecap:square;stroke-width:0.8;"/>
    </g>
    <g id="text_19">
     <!-- 2 -->
     <g transform="translate(396.260581 216.000611)scale(0.1 -0.1)">
      <use xlink:href="#DejaVuSans-50"/>
     </g>
    </g>
   </g>
   <g id="xtick_20">
    <g id="line2d_23">
     <path d="M 379.886447 196.038108 
L 383.146623 198.141168 
" style="fill:none;stroke:#000000;stroke-linecap:square;stroke-width:0.8;"/>
    </g>
    <g id="text_20">
     <!-- 4 -->
     <g transform="translate(397.713901 205.261238)scale(0.1 -0.1)">
      <use xlink:href="#DejaVuSans-52"/>
     </g>
    </g>
   </g>
   <g id="xtick_21">
    <g id="line2d_24">
     <path d="M 381.17099 185.095202 
L 384.462923 187.204366 
" style="fill:none;stroke:#000000;stroke-linecap:square;stroke-width:0.8;"/>
    </g>
    <g id="text_21">
     <!-- 6 -->
     <g transform="translate(399.194127 194.323044)scale(0.1 -0.1)">
      <use xlink:href="#DejaVuSans-54"/>
     </g>
    </g>
   </g>
   <g id="xtick_22">
    <g id="line2d_25">
     <path d="M 382.479514 173.948009 
L 385.803825 176.063139 
" style="fill:none;stroke:#000000;stroke-linecap:square;stroke-width:0.8;"/>
    </g>
    <g id="text_22">
     <!-- 8 -->
     <g transform="translate(400.702013 183.180455)scale(0.1 -0.1)">
      <use xlink:href="#DejaVuSans-56"/>
     </g>
    </g>
   </g>
   <g id="xtick_23">
    <g id="line2d_26">
     <path d="M 383.812696 162.590752 
L 387.170028 164.7117 
" style="fill:none;stroke:#000000;stroke-linecap:square;stroke-width:0.8;"/>
    </g>
    <g id="text_23">
     <!-- 10 -->
     <g transform="translate(399.057092 171.827689)scale(0.1 -0.1)">
      <use xlink:href="#DejaVuSans-49"/>
      <use x="63.623047" xlink:href="#DejaVuSans-48"/>
     </g>
    </g>
   </g>
   <g id="xtick_24">
    <g id="line2d_27">
     <path d="M 385.17124 151.01744 
L 388.562254 153.144044 
" style="fill:none;stroke:#000000;stroke-linecap:square;stroke-width:0.8;"/>
    </g>
    <g id="text_24">
     <!-- 12 -->
     <g transform="translate(400.622675 160.258742)scale(0.1 -0.1)">
      <use xlink:href="#DejaVuSans-49"/>
      <use x="63.623047" xlink:href="#DejaVuSans-50"/>
     </g>
    </g>
   </g>
   <g id="xtick_25">
    <g id="line2d_28">
     <path d="M 386.555876 139.221846 
L 389.981253 141.353933 
" style="fill:none;stroke:#000000;stroke-linecap:square;stroke-width:0.8;"/>
    </g>
    <g id="text_25">
     <!-- 14 -->
     <g transform="translate(402.218357 148.467379)scale(0.1 -0.1)">
      <use xlink:href="#DejaVuSans-49"/>
      <use x="63.623047" xlink:href="#DejaVuSans-52"/>
     </g>
    </g>
   </g>
  </g>
  <g id="axes_1">
   <g id="line2d_29">
    <path clip-path="url(#p81a7deb7d3)" d="M 126.256111 207.067662 
L 126.597791 204.819119 
L 126.701516 202.682632 
L 126.584114 200.616399 
L 126.249852 198.563951 
L 125.684968 196.469428 
L 124.867342 194.291454 
L 123.670995 191.772623 
L 120.985716 186.341684 
L 120.596274 184.897257 
L 120.469169 183.579669 
L 120.56635 182.156384 
L 120.925243 180.434464 
L 121.875257 177.26034 
L 122.76992 173.973607 
L 123.201141 171.553296 
L 123.378698 169.330773 
L 123.332982 167.167684 
L 123.063432 165.004041 
L 122.578878 162.878844 
L 121.8375 160.636226 
L 120.77222 158.161427 
L 118.929402 154.550641 
L 117.700749 151.941197 
L 117.171744 150.306398 
L 116.943348 148.894598 
L 116.940502 147.45839 
L 117.175794 145.812346 
L 117.74838 143.565857 
L 119.325982 137.748451 
L 119.721763 135.285424 
L 119.874081 132.940934 
L 119.794978 130.665493 
L 119.485196 128.393958 
L 118.956447 126.165311 
L 118.16599 123.813872 
L 117.047909 121.215608 
L 116.696306 120.48366 
L 116.696306 120.48366 
" style="fill:none;stroke:#808080;stroke-linecap:square;stroke-width:1.5;"/>
   </g>
   <g id="Path3DCollection_1">
    <defs>
     <path d="M 0 2.236068 
C 0.593012 2.236068 1.161816 2.000462 1.581139 1.581139 
C 2.000462 1.161816 2.236068 0.593012 2.236068 0 
C 2.236068 -0.593012 2.000462 -1.161816 1.581139 -1.581139 
C 1.161816 -2.000462 0.593012 -2.236068 0 -2.236068 
C -0.593012 -2.236068 -1.161816 -2.000462 -1.581139 -1.581139 
C -2.000462 -1.161816 -2.236068 -0.593012 -2.236068 0 
C -2.236068 0.593012 -2.000462 1.161816 -1.581139 1.581139 
C -1.161816 2.000462 -0.593012 2.236068 0 2.236068 
z
" id="mc73c861590" style="stroke:#17becf;"/>
    </defs>
    <g clip-path="url(#p81a7deb7d3)">
     <use style="fill:#17becf;stroke:#17becf;" x="272.435191" xlink:href="#mc73c861590" y="131.449581"/>
    </g>
   </g>
   <g id="Path3DCollection_2">
    <defs>
     <path d="M 0 2.236068 
C 0.593012 2.236068 1.161816 2.000462 1.581139 1.581139 
C 2.000462 1.161816 2.236068 0.593012 2.236068 0 
C 2.236068 -0.593012 2.000462 -1.161816 1.581139 -1.581139 
C 1.161816 -2.000462 0.593012 -2.236068 0 -2.236068 
C -0.593012 -2.236068 -1.161816 -2.000462 -1.581139 -1.581139 
C -2.000462 -1.161816 -2.236068 -0.593012 -2.236068 0 
C -2.236068 0.593012 -2.000462 1.161816 -1.581139 1.581139 
C -1.161816 2.000462 -0.593012 2.236068 0 2.236068 
z
" id="m7940b2f39b" style="stroke:#bcbd22;"/>
    </defs>
    <g clip-path="url(#p81a7deb7d3)">
     <use style="fill:#bcbd22;stroke:#bcbd22;" x="273.854895" xlink:href="#m7940b2f39b" y="132.868046"/>
    </g>
   </g>
   <g id="Path3DCollection_3">
    <defs>
     <path d="M 0 2.236068 
C 0.593012 2.236068 1.161816 2.000462 1.581139 1.581139 
C 2.000462 1.161816 2.236068 0.593012 2.236068 0 
C 2.236068 -0.593012 2.000462 -1.161816 1.581139 -1.581139 
C 1.161816 -2.000462 0.593012 -2.236068 0 -2.236068 
C -0.593012 -2.236068 -1.161816 -2.000462 -1.581139 -1.581139 
C -2.000462 -1.161816 -2.236068 -0.593012 -2.236068 0 
C -2.236068 0.593012 -2.000462 1.161816 -1.581139 1.581139 
C -1.161816 2.000462 -0.593012 2.236068 0 2.236068 
z
" id="mbf739cf89f" style="stroke:#7f7f7f;"/>
    </defs>
    <g clip-path="url(#p81a7deb7d3)">
     <use style="fill:#7f7f7f;stroke:#7f7f7f;" x="275.232051" xlink:href="#mbf739cf89f" y="134.302699"/>
    </g>
   </g>
   <g id="Path3DCollection_4">
    <defs>
     <path d="M 0 2.236068 
C 0.593012 2.236068 1.161816 2.000462 1.581139 1.581139 
C 2.000462 1.161816 2.236068 0.593012 2.236068 0 
C 2.236068 -0.593012 2.000462 -1.161816 1.581139 -1.581139 
C 1.161816 -2.000462 0.593012 -2.236068 0 -2.236068 
C -0.593012 -2.236068 -1.161816 -2.000462 -1.581139 -1.581139 
C -2.000462 -1.161816 -2.236068 -0.593012 -2.236068 0 
C -2.236068 0.593012 -2.000462 1.161816 -1.581139 1.581139 
C -1.161816 2.000462 -0.593012 2.236068 0 2.236068 
z
" id="m4712c4c45c" style="stroke:#e377c2;"/>
    </defs>
    <g clip-path="url(#p81a7deb7d3)">
     <use style="fill:#e377c2;stroke:#e377c2;" x="276.566162" xlink:href="#m4712c4c45c" y="135.753179"/>
    </g>
   </g>
   <g id="Path3DCollection_5">
    <defs>
     <path d="M 0 2.236068 
C 0.593012 2.236068 1.161816 2.000462 1.581139 1.581139 
C 2.000462 1.161816 2.236068 0.593012 2.236068 0 
C 2.236068 -0.593012 2.000462 -1.161816 1.581139 -1.581139 
C 1.161816 -2.000462 0.593012 -2.236068 0 -2.236068 
C -0.593012 -2.236068 -1.161816 -2.000462 -1.581139 -1.581139 
C -2.000462 -1.161816 -2.236068 -0.593012 -2.236068 0 
C -2.236068 0.593012 -2.000462 1.161816 -1.581139 1.581139 
C -1.161816 2.000462 -0.593012 2.236068 0 2.236068 
z
" id="m9d2d885c70" style="stroke:#8c564b;"/>
    </defs>
    <g clip-path="url(#p81a7deb7d3)">
     <use style="fill:#8c564b;stroke:#8c564b;" x="275.884786" xlink:href="#m9d2d885c70" y="137.752215"/>
    </g>
   </g>
   <g id="Path3DCollection_6">
    <defs>
     <path d="M 0 2.236068 
C 0.593012 2.236068 1.161816 2.000462 1.581139 1.581139 
C 2.000462 1.161816 2.236068 0.593012 2.236068 0 
C 2.236068 -0.593012 2.000462 -1.161816 1.581139 -1.581139 
C 1.161816 -2.000462 0.593012 -2.236068 0 -2.236068 
C -0.593012 -2.236068 -1.161816 -2.000462 -1.581139 -1.581139 
C -2.000462 -1.161816 -2.236068 -0.593012 -2.236068 0 
C -2.236068 0.593012 -2.000462 1.161816 -1.581139 1.581139 
C -1.161816 2.000462 -0.593012 2.236068 0 2.236068 
z
" id="mfd8bd7166b" style="stroke:#9467bd;"/>
    </defs>
    <g clip-path="url(#p81a7deb7d3)">
     <use style="fill:#9467bd;stroke:#9467bd;" x="279.10331" xlink:href="#mfd8bd7166b" y="138.700146"/>
    </g>
   </g>
   <g id="Path3DCollection_7">
    <defs>
     <path d="M 0 2.236068 
C 0.593012 2.236068 1.161816 2.000462 1.581139 1.581139 
C 2.000462 1.161816 2.236068 0.593012 2.236068 0 
C 2.236068 -0.593012 2.000462 -1.161816 1.581139 -1.581139 
C 1.161816 -2.000462 0.593012 -2.236068 0 -2.236068 
C -0.593012 -2.236068 -1.161816 -2.000462 -1.581139 -1.581139 
C -2.000462 -1.161816 -2.236068 -0.593012 -2.236068 0 
C -2.236068 0.593012 -2.000462 1.161816 -1.581139 1.581139 
C -1.161816 2.000462 -0.593012 2.236068 0 2.236068 
z
" id="mc00d52088e" style="stroke:#d62728;"/>
    </defs>
    <g clip-path="url(#p81a7deb7d3)">
     <use style="fill:#d62728;stroke:#d62728;" x="280.305399" xlink:href="#mc00d52088e" y="140.19588"/>
    </g>
   </g>
   <g id="Path3DCollection_8">
    <defs>
     <path d="M 0 2.236068 
C 0.593012 2.236068 1.161816 2.000462 1.581139 1.581139 
C 2.000462 1.161816 2.236068 0.593012 2.236068 0 
C 2.236068 -0.593012 2.000462 -1.161816 1.581139 -1.581139 
C 1.161816 -2.000462 0.593012 -2.236068 0 -2.236068 
C -0.593012 -2.236068 -1.161816 -2.000462 -1.581139 -1.581139 
C -2.000462 -1.161816 -2.236068 -0.593012 -2.236068 0 
C -2.236068 0.593012 -2.000462 1.161816 -1.581139 1.581139 
C -1.161816 2.000462 -0.593012 2.236068 0 2.236068 
z
" id="m6660caaacc" style="stroke:#2ca02c;"/>
    </defs>
    <g clip-path="url(#p81a7deb7d3)">
     <use style="fill:#2ca02c;stroke:#2ca02c;" x="281.462547" xlink:href="#m6660caaacc" y="141.705936"/>
    </g>
   </g>
   <g id="Path3DCollection_9">
    <defs>
     <path d="M 0 2.236068 
C 0.593012 2.236068 1.161816 2.000462 1.581139 1.581139 
C 2.000462 1.161816 2.236068 0.593012 2.236068 0 
C 2.236068 -0.593012 2.000462 -1.161816 1.581139 -1.581139 
C 1.161816 -2.000462 0.593012 -2.236068 0 -2.236068 
C -0.593012 -2.236068 -1.161816 -2.000462 -1.581139 -1.581139 
C -2.000462 -1.161816 -2.236068 -0.593012 -2.236068 0 
C -2.236068 0.593012 -2.000462 1.161816 -1.581139 1.581139 
C -1.161816 2.000462 -0.593012 2.236068 0 2.236068 
z
" id="m51398f6aab" style="stroke:#ff7f0e;"/>
    </defs>
    <g clip-path="url(#p81a7deb7d3)">
     <use style="fill:#ff7f0e;stroke:#ff7f0e;" x="282.574306" xlink:href="#m51398f6aab" y="143.229923"/>
    </g>
   </g>
   <g id="Path3DCollection_10">
    <defs>
     <path d="M 0 2.236068 
C 0.593012 2.236068 1.161816 2.000462 1.581139 1.581139 
C 2.000462 1.161816 2.236068 0.593012 2.236068 0 
C 2.236068 -0.593012 2.000462 -1.161816 1.581139 -1.581139 
C 1.161816 -2.000462 0.593012 -2.236068 0 -2.236068 
C -0.593012 -2.236068 -1.161816 -2.000462 -1.581139 -1.581139 
C -2.000462 -1.161816 -2.236068 -0.593012 -2.236068 0 
C -2.236068 0.593012 -2.000462 1.161816 -1.581139 1.581139 
C -1.161816 2.000462 -0.593012 2.236068 0 2.236068 
z
" id="mba06394832" style="stroke:#1f77b4;"/>
    </defs>
    <g clip-path="url(#p81a7deb7d3)">
     <use style="fill:#1f77b4;stroke:#1f77b4;" x="283.640233" xlink:href="#mba06394832" y="144.767444"/>
    </g>
   </g>
   <g id="Path3DCollection_11">
    <g clip-path="url(#p81a7deb7d3)">
     <use style="fill:#17becf;stroke:#17becf;" x="282.590708" xlink:href="#mc73c861590" y="146.738111"/>
    </g>
   </g>
   <g id="Path3DCollection_12">
    <g clip-path="url(#p81a7deb7d3)">
     <use style="fill:#bcbd22;stroke:#bcbd22;" x="285.632881" xlink:href="#m7940b2f39b" y="147.88147"/>
    </g>
   </g>
   <g id="Path3DCollection_13">
    <g clip-path="url(#p81a7deb7d3)">
     <use style="fill:#7f7f7f;stroke:#7f7f7f;" x="286.558771" xlink:href="#mbf739cf89f" y="149.457151"/>
    </g>
   </g>
   <g id="Path3DCollection_14">
    <g clip-path="url(#p81a7deb7d3)">
     <use style="fill:#e377c2;stroke:#e377c2;" x="287.437169" xlink:href="#m4712c4c45c" y="151.044719"/>
    </g>
   </g>
   <g id="Path3DCollection_15">
    <g clip-path="url(#p81a7deb7d3)">
     <use style="fill:#8c564b;stroke:#8c564b;" x="288.267688" xlink:href="#m9d2d885c70" y="152.643747"/>
    </g>
   </g>
   <g id="Path3DCollection_16">
    <g clip-path="url(#p81a7deb7d3)">
     <use style="fill:#9467bd;stroke:#9467bd;" x="289.049949" xlink:href="#mfd8bd7166b" y="154.253803"/>
    </g>
   </g>
   <g id="Path3DCollection_17">
    <g clip-path="url(#p81a7deb7d3)">
     <use style="fill:#d62728;stroke:#d62728;" x="289.783588" xlink:href="#mc00d52088e" y="155.874451"/>
    </g>
   </g>
   <g id="Path3DCollection_18">
    <g clip-path="url(#p81a7deb7d3)">
     <use style="fill:#2ca02c;stroke:#2ca02c;" x="290.468251" xlink:href="#m6660caaacc" y="157.505246"/>
    </g>
   </g>
   <g id="Path3DCollection_19">
    <g clip-path="url(#p81a7deb7d3)">
     <use style="fill:#ff7f0e;stroke:#ff7f0e;" x="291.103595" xlink:href="#m51398f6aab" y="159.145741"/>
    </g>
   </g>
   <g id="Path3DCollection_20">
    <g clip-path="url(#p81a7deb7d3)">
     <use style="fill:#1f77b4;stroke:#1f77b4;" x="291.689291" xlink:href="#mba06394832" y="160.79548"/>
    </g>
   </g>
   <g id="Path3DCollection_21">
    <g clip-path="url(#p81a7deb7d3)">
     <use style="fill:#17becf;stroke:#17becf;" x="292.225022" xlink:href="#mc73c861590" y="162.454006"/>
    </g>
   </g>
   <g id="Path3DCollection_22">
    <g clip-path="url(#p81a7deb7d3)">
     <use style="fill:#bcbd22;stroke:#bcbd22;" x="292.710482" xlink:href="#m7940b2f39b" y="164.120853"/>
    </g>
   </g>
   <g id="Path3DCollection_23">
    <g clip-path="url(#p81a7deb7d3)">
     <use style="fill:#7f7f7f;stroke:#7f7f7f;" x="293.145381" xlink:href="#mbf739cf89f" y="165.795551"/>
    </g>
   </g>
   <g id="Path3DCollection_24">
    <g clip-path="url(#p81a7deb7d3)">
     <use style="fill:#e377c2;stroke:#e377c2;" x="293.52944" xlink:href="#m4712c4c45c" y="167.477625"/>
    </g>
   </g>
   <g id="Path3DCollection_25">
    <g clip-path="url(#p81a7deb7d3)">
     <use style="fill:#8c564b;stroke:#8c564b;" x="291.646733" xlink:href="#m9d2d885c70" y="169.297212"/>
    </g>
   </g>
   <g id="Path3DCollection_26">
    <g clip-path="url(#p81a7deb7d3)">
     <use style="fill:#9467bd;stroke:#9467bd;" x="294.143991" xlink:href="#mfd8bd7166b" y="170.861977"/>
    </g>
   </g>
   <g id="Path3DCollection_27">
    <g clip-path="url(#p81a7deb7d3)">
     <use style="fill:#d62728;stroke:#d62728;" x="294.373995" xlink:href="#mc00d52088e" y="172.563281"/>
    </g>
   </g>
   <g id="Path3DCollection_28">
    <g clip-path="url(#p81a7deb7d3)">
     <use style="fill:#2ca02c;stroke:#2ca02c;" x="294.552182" xlink:href="#m6660caaacc" y="174.270012"/>
    </g>
   </g>
   <g id="Path3DCollection_29">
    <g clip-path="url(#p81a7deb7d3)">
     <use style="fill:#ff7f0e;stroke:#ff7f0e;" x="294.678344" xlink:href="#m51398f6aab" y="175.981671"/>
    </g>
   </g>
   <g id="Path3DCollection_30">
    <g clip-path="url(#p81a7deb7d3)">
     <use style="fill:#1f77b4;stroke:#1f77b4;" x="294.752285" xlink:href="#mba06394832" y="177.697754"/>
    </g>
   </g>
   <g id="Path3DCollection_31">
    <g clip-path="url(#p81a7deb7d3)">
     <use style="fill:#17becf;stroke:#17becf;" x="294.773828" xlink:href="#mc73c861590" y="179.417753"/>
    </g>
   </g>
   <g id="Path3DCollection_32">
    <g clip-path="url(#p81a7deb7d3)">
     <use style="fill:#bcbd22;stroke:#bcbd22;" x="294.742808" xlink:href="#m7940b2f39b" y="181.141157"/>
    </g>
   </g>
   <g id="Path3DCollection_33">
    <g clip-path="url(#p81a7deb7d3)">
     <use style="fill:#7f7f7f;stroke:#7f7f7f;" x="296.902743" xlink:href="#mbf739cf89f" y="182.914101"/>
    </g>
   </g>
   <g id="Path3DCollection_34">
    <g clip-path="url(#p81a7deb7d3)">
     <use style="fill:#e377c2;stroke:#e377c2;" x="294.522501" xlink:href="#m4712c4c45c" y="184.596107"/>
    </g>
   </g>
   <g id="Path3DCollection_35">
    <g clip-path="url(#p81a7deb7d3)">
     <use style="fill:#8c564b;stroke:#8c564b;" x="294.332964" xlink:href="#m9d2d885c70" y="186.326609"/>
    </g>
   </g>
   <g id="Path3DCollection_36">
    <g clip-path="url(#p81a7deb7d3)">
     <use style="fill:#9467bd;stroke:#9467bd;" x="294.090364" xlink:href="#mfd8bd7166b" y="188.058425"/>
    </g>
   </g>
   <g id="Path3DCollection_37">
    <g clip-path="url(#p81a7deb7d3)">
     <use style="fill:#d62728;stroke:#d62728;" x="293.794618" xlink:href="#mc00d52088e" y="189.791025"/>
    </g>
   </g>
   <g id="Path3DCollection_38">
    <g clip-path="url(#p81a7deb7d3)">
     <use style="fill:#2ca02c;stroke:#2ca02c;" x="293.445656" xlink:href="#m6660caaacc" y="191.523872"/>
    </g>
   </g>
   <g id="Path3DCollection_39">
    <g clip-path="url(#p81a7deb7d3)">
     <use style="fill:#ff7f0e;stroke:#ff7f0e;" x="293.043427" xlink:href="#m51398f6aab" y="193.25643"/>
    </g>
   </g>
   <g id="Path3DCollection_40">
    <g clip-path="url(#p81a7deb7d3)">
     <use style="fill:#1f77b4;stroke:#1f77b4;" x="292.587898" xlink:href="#mba06394832" y="194.988155"/>
    </g>
   </g>
   <g id="Path3DCollection_41">
    <g clip-path="url(#p81a7deb7d3)">
     <use style="fill:#17becf;stroke:#17becf;" x="292.07905" xlink:href="#mc73c861590" y="196.718505"/>
    </g>
   </g>
   <g id="Path3DCollection_42">
    <g clip-path="url(#p81a7deb7d3)">
     <use style="fill:#bcbd22;stroke:#bcbd22;" x="291.516884" xlink:href="#m7940b2f39b" y="198.446931"/>
    </g>
   </g>
   <g id="Path3DCollection_43">
    <g clip-path="url(#p81a7deb7d3)">
     <use style="fill:#7f7f7f;stroke:#7f7f7f;" x="290.901417" xlink:href="#mbf739cf89f" y="200.172884"/>
    </g>
   </g>
   <g id="Path3DCollection_44">
    <g clip-path="url(#p81a7deb7d3)">
     <use style="fill:#e377c2;stroke:#e377c2;" x="290.232686" xlink:href="#m4712c4c45c" y="201.895811"/>
    </g>
   </g>
   <g id="Path3DCollection_45">
    <g clip-path="url(#p81a7deb7d3)">
     <use style="fill:#8c564b;stroke:#8c564b;" x="287.308352" xlink:href="#m9d2d885c70" y="203.294743"/>
    </g>
   </g>
   <g id="Path3DCollection_46">
    <g clip-path="url(#p81a7deb7d3)">
     <use style="fill:#9467bd;stroke:#9467bd;" x="288.735662" xlink:href="#mfd8bd7166b" y="205.330368"/>
    </g>
   </g>
   <g id="Path3DCollection_47">
    <g clip-path="url(#p81a7deb7d3)">
     <use style="fill:#d62728;stroke:#d62728;" x="287.90753" xlink:href="#mc00d52088e" y="207.040884"/>
    </g>
   </g>
   <g id="Path3DCollection_48">
    <g clip-path="url(#p81a7deb7d3)">
     <use style="fill:#2ca02c;stroke:#2ca02c;" x="287.026457" xlink:href="#m6660caaacc" y="208.746144"/>
    </g>
   </g>
   <g id="Path3DCollection_49">
    <g clip-path="url(#p81a7deb7d3)">
     <use style="fill:#ff7f0e;stroke:#ff7f0e;" x="286.092571" xlink:href="#m51398f6aab" y="210.445587"/>
    </g>
   </g>
   <g id="Path3DCollection_50">
    <g clip-path="url(#p81a7deb7d3)">
     <use style="fill:#1f77b4;stroke:#1f77b4;" x="285.106016" xlink:href="#mba06394832" y="212.138651"/>
    </g>
   </g>
   <g id="Path3DCollection_51">
    <g clip-path="url(#p81a7deb7d3)">
     <use style="fill:#17becf;stroke:#17becf;" x="284.066958" xlink:href="#mc73c861590" y="213.824772"/>
    </g>
   </g>
   <g id="Path3DCollection_52">
    <g clip-path="url(#p81a7deb7d3)">
     <use style="fill:#bcbd22;stroke:#bcbd22;" x="282.975581" xlink:href="#m7940b2f39b" y="215.503385"/>
    </g>
   </g>
   <g id="Path3DCollection_53">
    <g clip-path="url(#p81a7deb7d3)">
     <use style="fill:#7f7f7f;stroke:#7f7f7f;" x="279.7147" xlink:href="#mbf739cf89f" y="216.671139"/>
    </g>
   </g>
   <g id="Path3DCollection_54">
    <g clip-path="url(#p81a7deb7d3)">
     <use style="fill:#e377c2;stroke:#e377c2;" x="280.636702" xlink:href="#m4712c4c45c" y="218.835826"/>
    </g>
   </g>
   <g id="Path3DCollection_55">
    <g clip-path="url(#p81a7deb7d3)">
     <use style="fill:#8c564b;stroke:#8c564b;" x="279.389664" xlink:href="#m9d2d885c70" y="220.488523"/>
    </g>
   </g>
   <g id="Path3DCollection_56">
    <g clip-path="url(#p81a7deb7d3)">
     <use style="fill:#9467bd;stroke:#9467bd;" x="276.017736" xlink:href="#mfd8bd7166b" y="221.5613"/>
    </g>
   </g>
   <g id="Path3DCollection_57">
    <g clip-path="url(#p81a7deb7d3)">
     <use style="fill:#d62728;stroke:#d62728;" x="276.741701" xlink:href="#mc00d52088e" y="223.764041"/>
    </g>
   </g>
   <g id="Path3DCollection_58">
    <g clip-path="url(#p81a7deb7d3)">
     <use style="fill:#2ca02c;stroke:#2ca02c;" x="275.341357" xlink:href="#m6660caaacc" y="225.385733"/>
    </g>
   </g>
   <g id="Path3DCollection_59">
    <g clip-path="url(#p81a7deb7d3)">
     <use style="fill:#ff7f0e;stroke:#ff7f0e;" x="271.86743" xlink:href="#m51398f6aab" y="226.359356"/>
    </g>
   </g>
   <g id="Path3DCollection_60">
    <g clip-path="url(#p81a7deb7d3)">
     <use style="fill:#1f77b4;stroke:#1f77b4;" x="272.38955" xlink:href="#mba06394832" y="228.594164"/>
    </g>
   </g>
   <g id="Path3DCollection_61">
    <g clip-path="url(#p81a7deb7d3)">
     <use style="fill:#17becf;stroke:#17becf;" x="270.838787" xlink:href="#mc73c861590" y="230.179778"/>
    </g>
   </g>
   <g id="Path3DCollection_62">
    <g clip-path="url(#p81a7deb7d3)">
     <use style="fill:#bcbd22;stroke:#bcbd22;" x="267.272385" xlink:href="#m7940b2f39b" y="231.050322"/>
    </g>
   </g>
   <g id="Path3DCollection_63">
    <g clip-path="url(#p81a7deb7d3)">
     <use style="fill:#7f7f7f;stroke:#7f7f7f;" x="267.589446" xlink:href="#mbf739cf89f" y="233.311008"/>
    </g>
   </g>
   <g id="Path3DCollection_64">
    <g clip-path="url(#p81a7deb7d3)">
     <use style="fill:#e377c2;stroke:#e377c2;" x="265.891688" xlink:href="#m4712c4c45c" y="234.855509"/>
    </g>
   </g>
   <g id="Path3DCollection_65">
    <g clip-path="url(#p81a7deb7d3)">
     <use style="fill:#8c564b;stroke:#8c564b;" x="264.145786" xlink:href="#m9d2d885c70" y="236.385196"/>
    </g>
   </g>
   <g id="Path3DCollection_66">
    <g clip-path="url(#p81a7deb7d3)">
     <use style="fill:#9467bd;stroke:#9467bd;" x="262.3522" xlink:href="#mfd8bd7166b" y="237.899517"/>
    </g>
   </g>
   <g id="Path3DCollection_67">
    <g clip-path="url(#p81a7deb7d3)">
     <use style="fill:#d62728;stroke:#d62728;" x="260.51141" xlink:href="#mc00d52088e" y="239.397926"/>
    </g>
   </g>
   <g id="Path3DCollection_68">
    <g clip-path="url(#p81a7deb7d3)">
     <use style="fill:#2ca02c;stroke:#2ca02c;" x="258.623916" xlink:href="#m6660caaacc" y="240.879878"/>
    </g>
   </g>
   <g id="Path3DCollection_69">
    <g clip-path="url(#p81a7deb7d3)">
     <use style="fill:#ff7f0e;stroke:#ff7f0e;" x="258.500926" xlink:href="#m51398f6aab" y="243.19424"/>
    </g>
   </g>
   <g id="Path3DCollection_70">
    <g clip-path="url(#p81a7deb7d3)">
     <use style="fill:#1f77b4;stroke:#1f77b4;" x="254.710919" xlink:href="#mba06394832" y="243.792249"/>
    </g>
   </g>
   <g id="Path3DCollection_71">
    <g clip-path="url(#p81a7deb7d3)">
     <use style="fill:#17becf;stroke:#17becf;" x="252.686515" xlink:href="#mc73c861590" y="245.221598"/>
    </g>
   </g>
   <g id="Path3DCollection_72">
    <g clip-path="url(#p81a7deb7d3)">
     <use style="fill:#bcbd22;stroke:#bcbd22;" x="250.617605" xlink:href="#m7940b2f39b" y="246.632349"/>
    </g>
   </g>
   <g id="Path3DCollection_73">
    <g clip-path="url(#p81a7deb7d3)">
     <use style="fill:#7f7f7f;stroke:#7f7f7f;" x="248.50479" xlink:href="#mbf739cf89f" y="248.023978"/>
    </g>
   </g>
   <g id="Path3DCollection_74">
    <g clip-path="url(#p81a7deb7d3)">
     <use style="fill:#e377c2;stroke:#e377c2;" x="246.348687" xlink:href="#m4712c4c45c" y="249.395965"/>
    </g>
   </g>
   <g id="Path3DCollection_75">
    <g clip-path="url(#p81a7deb7d3)">
     <use style="fill:#8c564b;stroke:#8c564b;" x="244.149933" xlink:href="#m9d2d885c70" y="250.747797"/>
    </g>
   </g>
   <g id="Path3DCollection_76">
    <g clip-path="url(#p81a7deb7d3)">
     <use style="fill:#9467bd;stroke:#9467bd;" x="241.909186" xlink:href="#mfd8bd7166b" y="252.078964"/>
    </g>
   </g>
   <g id="Path3DCollection_77">
    <g clip-path="url(#p81a7deb7d3)">
     <use style="fill:#d62728;stroke:#d62728;" x="239.627121" xlink:href="#mc00d52088e" y="253.388964"/>
    </g>
   </g>
   <g id="Path3DCollection_78">
    <g clip-path="url(#p81a7deb7d3)">
     <use style="fill:#2ca02c;stroke:#2ca02c;" x="237.304431" xlink:href="#m6660caaacc" y="254.677299"/>
    </g>
   </g>
   <g id="Path3DCollection_79">
    <g clip-path="url(#p81a7deb7d3)">
     <use style="fill:#ff7f0e;stroke:#ff7f0e;" x="234.941831" xlink:href="#m51398f6aab" y="255.943478"/>
    </g>
   </g>
   <g id="Path3DCollection_80">
    <g clip-path="url(#p81a7deb7d3)">
     <use style="fill:#1f77b4;stroke:#1f77b4;" x="232.540052" xlink:href="#mba06394832" y="257.187018"/>
    </g>
   </g>
  </g>
 </g>
 <defs>
  <clipPath id="p81a7deb7d3">
   <rect height="266.112" width="357.12" x="57.6" y="41.472"/>
  </clipPath>
 </defs>
</svg>
